<svg width="700" height="700" viewBox="0 0 700 700" fill="none" xmlns="http://www.w3.org/2000/svg">
<g clip-path="url(#clip0)">
<path d="M699.283 326.586C697.659 313.548 687.897 244.504 631.73 200.723C580.547 160.895 510.642 157.574 451.582 191.719C451.582 191.719 405.29 190.7 398.552 193.226C384.757 198.36 407.325 204.064 419.159 206.55C419.626 206.591 419.85 206.856 419.813 207.385C419.775 207.895 419.514 208.119 419.047 208.098C405.962 208.832 377.926 211.317 377.104 219.364C376.768 222.543 405.682 225.802 419.047 227.126C419.551 227.126 419.813 227.412 419.813 227.982C419.813 228.532 419.551 228.817 419.047 228.817C403.834 231.14 367.528 236.987 366.39 240.043C362.302 250.881 408.015 249.109 423.62 248.192C424.087 248.11 424.367 248.314 424.46 248.803C424.554 249.312 424.367 249.618 423.919 249.74C411.133 254.772 377.963 268.748 385.168 273.637C392.354 278.527 432.263 268.137 445.74 264.368C446.225 264.246 446.692 264.246 447.177 264.388C447.644 264.531 448.054 264.796 448.409 265.162C448.745 265.529 449.006 265.977 449.137 266.487C449.286 266.996 449.305 267.526 449.193 268.055C447.196 277.936 443.183 299.368 445.721 301.487C449.062 304.237 473.291 264.918 473.291 264.918C473.291 264.918 528.842 208.567 599.4 262.432C601.715 264.449 642.631 301.324 636.154 358.775C631.562 400.009 604.384 434.887 567.108 447.457C561.993 449.271 556.767 450.574 551.447 451.349C538.138 453.366 524.866 453.141 511.613 450.676C478.051 444.055 454.27 421.095 437.004 404.41C425.972 393.755 419.085 385.198 409.789 373.688C380.203 337.058 371.822 316.644 350.449 286.554C348.041 283.192 322.879 247.968 296.205 224.621C285.49 215.229 200.858 140.909 108.572 178.578C59.8346 198.462 12.3477 248.559 1.98797 319.17C-11.8064 413.7 50.5388 478.078 55.28 482.804C62.4665 489.303 70.101 495.13 78.1461 500.284C86.2099 505.438 94.5911 509.839 103.29 513.485C112.007 517.153 120.91 520.025 130.057 522.103C139.185 524.181 148.406 525.444 157.72 525.892C167.035 526.32 176.33 525.954 185.589 524.752C194.847 523.529 203.956 521.512 212.916 518.701C221.895 515.869 230.593 512.283 239.012 507.924C247.449 503.544 255.494 498.471 263.184 492.665C263.184 492.665 303.111 483.986 309.01 479.626C321.05 470.682 297.941 471.681 285.938 472.699C285.546 472.72 285.304 472.496 285.21 472.068C285.136 471.62 285.285 471.334 285.677 471.171C298.127 466.689 324.559 456.197 323.439 448.211C322.972 445.033 294.32 450.228 281.085 452.795C280.619 452.958 280.32 452.775 280.171 452.265C280.04 451.756 280.189 451.41 280.656 451.247C294.786 444.626 328.404 428.511 328.777 425.251C330.103 413.598 286.442 428.511 271.584 433.889C271.173 434.093 270.856 433.971 270.651 433.522C270.445 433.074 270.539 432.728 270.949 432.483C282.056 423.886 310.783 400.865 302.589 398.237C294.394 395.629 258.48 417.082 246.385 424.579C245.955 424.844 245.489 424.986 245.003 424.986C244.518 424.986 244.051 424.864 243.622 424.599C243.193 424.334 242.857 423.988 242.595 423.54C242.334 423.071 242.203 422.582 242.185 422.032C241.737 411.968 240.449 390.149 237.481 388.764C233.598 387.093 217.415 435.112 217.415 435.112C186.541 458.601 146.539 461.148 114.583 441.692C77.5675 419.139 60.1332 372.404 67.2824 329.866C76.0928 277.406 119.38 248.171 154.454 242.61C191.823 236.559 221.447 257.156 242.185 271.559C268.915 290.139 278.789 307.721 316.476 357.899C356.03 410.522 375.798 436.843 390.787 451.349C415.613 475.368 475.046 531.291 547.657 523.957C548.404 523.957 550.719 523.651 553.967 523.183C574.891 520.168 630.741 507.883 668.503 451.634C703.838 398.93 700.59 341.743 699.283 326.586Z" fill="white"/>
<path d="M606.661 282.944C621.27 282.346 620.947 291.661 620.732 303.838C619.655 368.784 573.279 341.31 586.991 319.69C593.631 309.222 592.483 320.032 591.621 297.173C591.298 289.012 602.067 283.115 606.661 282.944Z" fill="#0B4870"/>
<path d="M605.801 331.569C602.75 330.971 586.777 349.557 582.577 354.599C578.378 359.684 574.07 366.648 578.521 366.648C582.972 366.648 587.602 361.692 591.12 358.359C594.638 355.026 599.376 350.155 601.996 347.933C604.581 345.754 608.816 332.167 605.801 331.569Z" fill="#B97A59"/>
<path d="M582.685 371.348C582.685 371.348 580.747 356.18 574.393 344.943C568.04 333.662 564.845 324.903 564.845 324.903L562.117 326.399C562.117 326.399 571.665 356.394 573.891 361.307C576.116 366.136 576.26 365.495 582.685 371.348Z" fill="#B97A59"/>
<path d="M564.809 329.005C564.809 329.005 560.286 327.039 555.871 322.767C551.456 318.494 551.492 318.366 550.738 316.358C549.985 314.349 551.313 310.589 552.928 312.17C554.507 313.751 555.871 317.255 557.128 318.28C560.322 320.929 559.497 318.537 559.281 317.853C559.066 317.169 558.707 316.187 559.245 315.717C559.784 315.247 560.215 316.785 560.538 317.298C560.861 317.81 563.23 320.203 563.696 320.758C564.163 321.271 564.055 323.066 564.737 324.561C565.455 326.099 567.322 332.551 566.424 333.449C566.388 333.449 566.173 329.774 564.809 329.005Z" fill="#B97A59"/>
<path d="M499.911 493.421C499.911 493.421 497.003 502.863 495.029 507.222C493.055 511.537 491.368 514.443 490.542 518.331C489.717 522.219 501.526 517.434 502.854 514.913C504.182 512.392 504.469 503.803 509.172 497.352C513.946 490.9 499.911 493.421 499.911 493.421Z" fill="#B97A59"/>
<path d="M550.487 408.478C550.487 408.478 515.023 427.407 511.469 433.004C507.952 438.601 501.885 481.842 499.337 493.464C498.798 495.899 507.341 499.275 509.746 497.523C512.151 495.771 522.633 470.305 524.391 463.725C526.294 456.419 525.612 447.702 527.119 446.891C530.278 445.139 561.865 434.799 566.352 430.825C570.875 426.851 583.941 412.837 582.577 408.179C581.213 403.565 550.487 408.478 550.487 408.478Z" fill="#0B4870"/>
<path d="M505.654 504.188C505.654 504.188 507.987 507.991 508.562 509.658C509.136 511.324 510.572 512.948 509.459 514.699C508.346 516.409 504.075 520.04 500.772 526.022C497.506 532.004 491.727 538.883 487.922 541.148C484.117 543.412 478.518 542.729 478.482 540.208C478.446 537.687 481.533 534.183 483.076 532.859C484.62 531.491 490.865 515.084 491.691 512.52C492.517 509.957 493.701 508.718 495.281 509.914C496.86 511.11 498.834 511.879 501.454 509.401C504.075 506.966 505.654 504.188 505.654 504.188Z" fill="#0B4870"/>
<path d="M607.487 370.836C607.487 370.836 601.78 378.484 600.021 385.833C598.226 393.182 602.39 412.88 592.339 427.151C587.242 434.415 557.558 430.569 557.558 430.569C581.643 379.595 583.079 371.391 581.643 365.452C580.207 359.513 581.535 356.65 586.202 352.036C590.832 347.421 594.242 343.276 595.247 337.893C596.252 332.595 632.829 322.895 607.487 370.836Z" fill="#FFBE55"/>
<path d="M617.359 336.439C617.359 336.439 615.492 334.517 615.133 326.27C614.774 318.024 614.666 313.751 615.959 310.803C617.251 307.897 603.898 307.299 603.575 313.324C603.288 319.348 602.498 320.203 603.862 326.569C605.262 332.936 600.452 334.688 599.411 335.2C597.329 336.268 591.299 345.626 617.359 336.439Z" fill="#AA6B4F"/>
<path d="M606.805 302.3C609.21 302.984 611.579 303.283 613.768 302.599C611.974 316.742 602.103 318.622 601.744 318.665C601.385 318.708 601.026 318.75 600.559 318.152C600.093 317.554 594.098 308.453 597.185 294.225C597.4 293.199 598.836 299.993 606.805 302.3Z" fill="#B97A59"/>
<path d="M612.046 340.541C607.775 341.609 594.601 372.672 590.796 381.133C586.992 389.593 583.725 400.445 589.648 397.796C595.57 395.147 599.985 386.559 603.539 380.577C607.057 374.552 611.651 365.964 614.379 361.82C617.107 357.675 616.318 339.473 612.046 340.541Z" fill="#B97A59"/>
<path d="M544.815 480.089C544.815 480.089 549.338 489.19 549.589 492.523C549.84 495.856 550.163 498.12 552.353 497.437C554.543 496.753 557.917 489.062 557.414 486.626C556.912 484.191 551.779 478.423 550.989 474.534C550.235 470.646 544.779 481.627 544.779 481.627L544.815 480.089Z" fill="#B97A59"/>
<path d="M553.896 479.919C553.896 479.919 556.911 481.756 558.742 481.97C560.573 482.226 563.121 484.405 562.87 489.02C562.619 493.635 561.829 502.864 561.901 508.675C561.973 514.486 557.809 524.099 556.696 526.022C554.901 529.141 550.809 529.141 549.876 526.407C548.943 523.672 550.055 515.981 550.127 512.05C550.199 508.119 548.871 495.215 548.763 493.635C548.656 492.054 552.137 488.635 553.358 490.515C554.578 492.395 555.727 490.216 555.763 488.806C555.763 487.396 553.896 479.919 553.896 479.919Z" fill="#0B4870"/>
<path d="M570.192 407.153C562.69 407.238 528.159 403.863 523.278 409.289C518.396 414.758 526.436 430.311 551.635 437.618C576.833 444.924 581.643 442.873 589.683 432.405C597.723 421.937 575.792 407.068 570.192 407.153Z" fill="#0E538C"/>
<path d="M533.975 422.022C533.975 422.022 547.364 436.506 548.405 452.529C549.41 468.552 552.066 476.029 552.066 476.029L544.779 481.584C544.779 481.584 522.417 436.72 520.801 427.704C519.186 418.689 519.725 408.947 524.642 410.4C529.56 411.852 533.975 422.022 533.975 422.022Z" fill="#0E538C"/>
<path d="M544.744 481.499C544.78 481.541 544.78 481.584 544.78 481.584L551.133 476.756L544.744 481.499Z" fill="#89D5DA"/>
<path d="M587.89 398.266C579.921 398.993 567.251 399.335 567.251 399.335C567.251 399.335 549.662 402.496 566.246 394.592C569.835 392.883 579.204 387.285 592.413 385.234C593.849 385.021 593.131 385.491 594.638 386.217C597.259 387.456 594.351 397.668 587.89 398.266Z" fill="#B97A59"/>
<path d="M552.354 403.095L552.318 401.984L554.364 399.377C554.364 399.377 559.21 397.07 561.256 397.07C563.302 397.07 570.66 393.267 571.629 393.139C572.599 393.011 575.111 397.967 575.111 397.967C575.111 397.967 567.035 399.377 563.84 400.317C560.682 401.257 556.518 404.59 555.261 405.017C553.144 405.744 552.139 406.256 552.139 406.256C552.139 406.256 551.995 404.718 555.261 403.351C556.123 402.966 555.333 401.941 555.333 401.941L552.354 403.095Z" fill="#B97A59"/>
<path d="M570.91 407.154C570.91 407.154 570.91 407.112 570.946 407.112L570.91 405.616H524.247V407.112V407.154L524.355 407.411C524.965 408.693 526.042 408.906 527.262 408.906H567.895C569.115 408.906 570.192 408.693 570.802 407.411L570.91 407.154Z" fill="#D3D3D3"/>
<path d="M559.675 407.41C559.675 407.41 559.639 407.41 559.675 407.41L559.783 407.667C559.962 408.008 560.214 408.222 560.465 408.436H567.572C568.756 408.436 569.797 408.265 570.371 407.197L570.479 406.983C570.479 406.983 570.479 406.94 570.515 406.94V406.214H559.711V407.41H559.675Z" fill="#F7F7F7"/>
<path d="M559.388 405.573L553.322 375.493C553.178 374.681 552.532 374.04 551.922 374.04H519.186C518.575 374.04 518.216 374.681 518.396 375.493L524.462 405.573H559.388Z" fill="#F7F7F7"/>
<path d="M540.902 389.807C541.225 391.345 540.507 392.584 539.359 392.584C538.174 392.584 536.99 391.345 536.667 389.807C536.343 388.268 537.061 387.029 538.21 387.029C539.395 387.029 540.579 388.268 540.902 389.807Z" fill="#D3D3D3"/>
<path d="M603.216 284.611C604.436 283.97 616.712 281.321 622.563 288.457C628.414 295.592 629.993 306.231 627.193 316.101C624.393 325.971 628.019 325.031 631.393 333.363C638.392 350.497 620.014 361.436 609.856 351.822C604.4 346.652 604.221 330.586 605.621 319.562C607.02 308.539 615.563 305.078 610.502 302.813C604.58 300.164 592.555 290.337 603.216 284.611Z" fill="#0B4870"/>
<path d="M163.914 532.027H74.4482V538.696H163.914V532.027Z" fill="#D3D3D3"/>
<path d="M151.503 578.072H55.3398V584.741H151.503V578.072Z" fill="#D3D3D3"/>
<path d="M142.841 622.61H46.6787V629.28H142.841V622.61Z" fill="#D3D3D3"/>
<path d="M37.0358 666.917H26.3213L105.251 425.785H111.234L37.0358 666.917Z" fill="#D3D3D3"/>
<path d="M148.914 666.917H138.199L200.79 419L206.058 420.624L148.914 666.917Z" fill="#D3D3D3"/>
<path d="M127.217 666.917L184.807 426.191L105.252 425.785L26.3217 666.917H14L94.1802 419H200.79L141.592 666.917H125.431" fill="#F7F7F7"/>
<path d="M138.152 520.644L138.586 510.703L146.898 512.851L148.488 525.246C148.488 525.246 140.538 525.675 138.152 520.644Z" fill="#FCD2B1"/>
<path d="M138.875 520.705C140.827 521.38 144.079 521.993 148.127 521.196L147.621 518.373C147.621 518.373 149.934 519.539 150.512 522.116C151.09 524.632 151.235 523.957 154.994 525.92C158.824 527.884 158.535 532.302 158.535 532.302L130.202 531.688C130.202 531.688 129.407 526.841 134.538 521.686C135.55 520.582 137.357 520.152 138.875 520.705Z" fill="#0E538C"/>
<path d="M93.1222 374.545C93.1222 374.545 89.436 386.755 94.6401 394.425C99.8442 402.095 109.24 385.099 109.24 385.099C109.24 385.099 107.578 368.777 93.1222 374.545Z" fill="#FFBE55"/>
<path d="M90.5207 316.621C90.5207 316.621 71.4389 338.649 68.2586 351.965C65.006 365.28 68.4755 394.365 68.4755 394.365H76.2817C76.2817 394.365 80.4016 357.242 83.0036 351.965C85.6057 346.565 102.519 321.653 102.519 321.653L90.5207 316.621Z" fill="#FFE3CA"/>
<path d="M100.712 520.644L101.146 510.703L109.458 512.851L111.048 525.246C110.976 525.246 103.097 525.675 100.712 520.644Z" fill="#FCD2B1"/>
<path d="M182.749 296.371C182.749 296.371 203.349 295.082 205.806 286.983C208.264 278.883 207.83 257.039 207.83 257.039H214.986C214.986 257.039 219.901 277.349 219.612 286.983C219.322 296.616 205.517 313.061 182.749 312.018C160.053 310.975 182.749 296.371 182.749 296.371Z" fill="#FFE3CA"/>
<path d="M116.036 295.328C116.036 295.328 104.109 296.371 99.1944 300.789C96.8092 302.937 81.992 318.522 82.5702 321.897L99.9895 331.101L114.229 314.35L116.036 295.328Z" fill="#2A94F4"/>
<path d="M97.3865 370.372C97.3865 370.372 92.2547 383.258 97.0974 397.371C101.94 411.484 101.94 439.955 101.506 447.379C101.073 454.804 92.9052 476.28 99.844 514.201H101.506H110.541C110.541 514.201 117.046 474.439 120.805 457.504C124.347 441.611 128.828 401.973 128.828 401.973C128.828 401.973 142.272 439.587 140.031 449.281C137.574 459.958 137.285 514.139 137.285 514.139H148.054C148.054 514.139 160.125 467.506 160.848 454.988C161.643 442.47 159.98 372.274 159.98 372.274C159.98 372.274 124.13 351.596 97.3865 370.372Z" fill="#0B4870"/>
<path d="M134.104 270.846L123.189 299.194L142.922 302.508L147.258 273.116L134.104 270.846Z" fill="#FCD2B1"/>
<path d="M145.295 293.355C145.295 293.355 158.677 294.875 160.051 304.559C161.425 314.244 163.306 355.542 163.306 359.103C162.872 360.744 110.865 366.227 95.3861 357.903C91.4802 355.782 104.283 319.846 102.475 310.402C100.594 300.998 110.721 289.033 145.295 293.355Z" fill="#2A94F4"/>
<path d="M160.848 323.432C160.848 323.432 166.196 313.062 182.748 312.019C182.748 312.019 186.724 302.385 182.748 296.372C182.748 296.372 152.752 291.156 141.332 293.12C129.912 295.083 160.848 323.432 160.848 323.432Z" fill="#2A94F4"/>
<path d="M214.913 262.5C214.913 262.5 217.153 252.315 213.178 246.547C210.793 243.111 208.191 241.515 205.589 242.129C203.854 242.558 203.131 245.135 203.565 246.608C204.143 248.51 206.022 253.726 207.034 255.199C207.034 255.199 205.227 255.199 203.348 251.762C201.541 248.388 200.168 253.358 201.613 255.689C203.782 259.064 210.937 268.33 214.913 262.5Z" fill="#FFE3CA"/>
<path d="M101.362 520.705C103.313 521.38 106.566 521.993 110.613 521.196L110.107 518.373C110.107 518.373 112.42 519.539 112.999 522.116C113.577 524.632 113.721 523.957 117.48 525.92C121.311 527.884 121.022 532.302 121.022 532.302L92.688 531.688C92.688 531.688 91.893 526.841 97.0248 521.686C98.109 520.582 99.8437 520.152 101.362 520.705Z" fill="#0E538C"/>
<path d="M162.077 266.612C161.571 263.054 170.678 260.661 153.258 250.229C144.368 244.952 128.9 247.284 124.13 255.261C119.359 263.238 121.889 264.035 118.203 264.588C114.517 265.201 118.42 289.868 140.682 289.561C163.016 289.254 162.077 266.612 162.077 266.612Z" fill="#0B4870"/>
<path d="M94.3512 365.954H162.149C164.896 365.954 167.137 367.672 167.426 369.943C168.582 378.594 169.811 398.23 157.885 399.641C142.562 401.482 137.647 387.43 137.647 374.36L93.1225 374.545C93.1225 374.545 91.6046 368.286 94.3512 365.954Z" fill="#FFBE55"/>
<path d="M75.775 390.928C75.775 390.928 74.474 403.998 79.4612 407.556C84.4485 411.177 70.6432 412.772 67.246 406.145C63.8489 399.518 68.4748 390.928 68.4748 390.928H75.775Z" fill="#FFE3CA"/>
<path d="M74.474 392.646C74.474 392.646 79.0999 393.32 80.8346 397.554C81.8465 399.947 82.4248 402.525 82.7139 404.304C82.9307 405.47 81.3406 406.268 80.1841 405.531C79.0276 404.795 77.9435 403.69 78.088 401.788C78.4494 397.8 72.8116 398.966 72.8116 398.966C72.8116 398.966 70.9323 394.241 74.474 392.646Z" fill="#FFE3CA"/>
<path d="M150.15 374.974H146.608V366.077C146.608 365.586 147.114 365.156 147.693 365.156H149.138C149.716 365.156 150.222 365.586 150.222 366.077V374.974H150.15Z" fill="#F7F7F7"/>
<path d="M155.427 374.974H151.886V369.083C151.886 368.593 152.392 368.163 152.97 368.163H154.416C154.994 368.163 155.5 368.593 155.5 369.083V374.974H155.427Z" fill="#F7F7F7"/>
<path d="M162.149 374.973H157.234V362.149C157.234 361.474 157.885 360.922 158.68 360.922H160.704C161.499 360.922 162.149 361.474 162.149 362.149V374.973Z" fill="#F7F7F7"/>
<path opacity="0.32" d="M166.124 374.974H138.803V376.937H166.124V374.974Z" fill="#161616"/>
</g>
<defs>
<clipPath id="clip0">
<rect width="700" height="700" fill="white"/>
</clipPath>
</defs>
</svg>
