<svg width="945" height="713" viewBox="0 0 945 713" fill="none" xmlns="http://www.w3.org/2000/svg">
<path d="M472.5 603.215C663.975 603.215 819.197 525.228 819.197 429.028C819.197 332.827 663.975 254.84 472.5 254.84C281.025 254.84 125.803 332.827 125.803 429.028C125.803 525.228 281.025 603.215 472.5 603.215Z" fill="#CBE3FF"/>
<path opacity="0.32" d="M537.091 535.67C537.303 535.67 676.478 463.378 676.644 463.52L448.402 324.439L319.126 278.158L268.356 368.618C298.714 386.833 504.724 521.33 537.091 535.67Z" fill="url(#paint0_linear)"/>
<path opacity="0.32" d="M281.327 563.028C293.139 566.643 304.952 570.116 317.166 572.667C324.587 573.986 332.082 574.846 339.609 575.243L352.225 566.69L439.638 501.769L377.906 458.984L214.893 534.584C234.336 548.948 258.458 556.012 281.327 563.028Z" fill="url(#paint1_linear)"/>
<path d="M365.337 432.784C356.548 426.641 346.201 423.334 335.026 425.696C323.214 428.319 312.819 435.808 300.675 437.627C298.762 437.91 291.107 437.414 289.926 438.525C256.166 470.537 350.524 467.158 350.524 467.158C359.691 459.669 368.314 452.275 377.409 444.691C374.669 438.501 370.038 436.091 365.337 432.784Z" fill="#F8997C"/>
<path d="M320.898 479.113L317.544 575.503C317.426 579.164 323.096 579.164 323.214 575.503L326.568 479.113C326.71 475.451 321.04 475.451 320.898 479.113Z" fill="#844040"/>
<path d="M391.679 530.686C374.496 513.865 358.076 496.311 342.421 478.025C340.058 475.238 336.042 479.278 338.405 482.042C354.044 500.312 370.464 517.865 387.663 534.702C390.261 537.253 394.301 533.308 391.679 530.686Z" fill="#844040"/>
<path d="M301.219 470.182C287.879 495.382 275.279 520.952 263.419 546.892C261.907 550.2 266.821 553.082 268.333 549.751C280.114 523.795 292.714 498.225 306.133 473.041C307.834 469.828 302.92 466.945 301.219 470.182Z" fill="#844040"/>
<path d="M375.826 441.809C370.138 449.595 362.134 455.383 352.957 458.346C340.058 462.221 321.3 460.378 314.52 447.101C302.187 422.932 313.764 392.763 300.746 369.138C299.229 366.153 297.101 363.521 294.5 361.413C291.899 359.304 288.884 357.767 285.65 356.9C277.216 355.081 271.475 361.342 268.356 368.713C262.875 381.895 263.064 398.315 263.324 412.372C263.338 423.726 264.175 435.064 265.828 446.297C265.828 446.297 273.719 493.406 335.239 480.766C345.873 478.864 356.097 475.131 365.455 469.733C370.234 467.018 374.426 463.38 377.787 459.031C381.567 453.645 379.087 447.219 375.826 441.809Z" fill="#BF59C0"/>
<path d="M569.882 128.801C569.882 128.801 562.18 134.282 560.432 161.663C558.684 189.045 556.983 206.197 554.904 211.016C552.825 215.836 524.948 233.861 524.948 233.861L538.697 249.95L580.679 224.411" fill="#E6E6E6"/>
<path d="M616.636 329.33V425.649H623.771L625.306 326.849" fill="#895851"/>
<path d="M657.177 292.31L671.446 397.016H664.311L649.404 296.184" fill="#895851"/>
<path d="M513.206 365.571C513.206 365.571 506.567 387.353 505.079 389.574C503.59 391.795 481.832 406.111 482.186 410.624C482.541 415.136 490.762 416.908 495.889 416.53C501.015 416.152 530.547 403.843 532.39 400.229C534.232 396.614 534.232 365.594 534.232 365.594L513.206 365.571Z" fill="#5C2D1D"/>
<path d="M548.218 391.015C548.218 391.015 541.58 412.797 540.091 415.018C538.603 417.238 516.844 431.555 517.198 436.068C517.553 440.58 525.774 442.352 530.901 441.974C536.028 441.596 565.559 429.287 567.402 425.673C569.245 422.058 569.245 391.038 569.245 391.038L548.218 391.015Z" fill="#5C2D1D"/>
<path d="M661.051 192.754C659.161 198.046 648.482 278.371 648.482 278.371L637.757 274.78L651.743 192.329" fill="#895851"/>
<path d="M657.177 292.31L657.366 279.363L645.931 283.285L649.404 296.184" fill="#A9CBF8"/>
<path d="M631.284 272.275C631.284 272.275 660.035 283.308 657.271 294.176C654.507 305.043 631.331 331.645 616.612 329.353C601.894 327.062 583.963 314.257 583.963 314.257" fill="#A9CBF8"/>
<path d="M631.284 259.046C631.284 259.046 660.035 270.079 657.271 280.946C654.507 291.814 631.331 318.321 616.612 316.124C601.894 313.927 583.963 301.027 583.963 301.027" fill="#CBE3FF"/>
<path d="M642.6 158.19C642.6 158.19 670.383 165.113 673.312 181.107C676.242 197.101 676.951 226.585 637.497 215.127C598.043 203.669 616.612 174.066 616.612 174.066" fill="#CBE3FF"/>
<path d="M575.411 221.884C575.411 221.884 518.545 260.912 511.198 280.781C503.85 300.649 499.054 378.943 499.054 378.943C499.054 378.943 518.947 391.298 542.099 384.022L559.535 295.31C559.535 295.31 600.878 277.639 608.155 255.573C615.432 233.507 605.627 192.281 605.627 192.281" fill="#895851"/>
<path d="M607.163 244.729C607.163 244.729 550.462 283.757 543.068 303.626C535.673 323.495 530.924 401.788 530.924 401.788C530.924 401.788 550.817 414.144 573.969 406.867L591.405 318.155C591.405 318.155 632.748 300.484 640.025 278.418C647.302 256.352 637.497 215.127 637.497 215.127" fill="#895851"/>
<path d="M629.866 245.556C639.576 221.931 648.341 153.418 642.482 145.976C635.607 137.141 596.531 122.729 596.531 122.729C591.93 121.479 587.092 121.381 582.444 122.445C577.797 123.508 573.482 125.699 569.882 128.825C560.432 136.881 567.071 199.416 569.882 230.79C586.443 246.099 606.028 249.808 629.866 245.556Z" fill="#E6E6E6"/>
<path d="M589.113 252.62C578.883 262.849 567.851 272.677 558.401 283.568C550.132 293.018 546.872 305.02 543.659 316.927C536.169 344.639 532.838 373.225 529.484 401.67C529.271 403.394 531.988 403.371 532.177 401.67C535.366 374.312 538.603 346.836 545.549 320.116C548.974 307.028 552.376 293.987 561.755 283.805C571.134 273.622 581.222 264.243 590.956 254.51C591.131 254.253 591.212 253.943 591.185 253.634C591.158 253.324 591.024 253.034 590.807 252.811C590.59 252.589 590.303 252.448 589.994 252.413C589.686 252.378 589.374 252.451 589.113 252.62Z" fill="#5C2D1D"/>
<path d="M567.449 249.43C567.449 249.43 539.855 256.069 540.776 258.549C541.697 261.03 550.746 258.549 550.746 258.549C550.746 258.549 532.247 266.275 536.027 273.929C538.39 278.89 556.038 275.512 560.81 273.929C565.582 272.346 578.576 259.754 578.576 259.754L567.449 249.43Z" fill="#FFD8C6"/>
<path d="M616.612 174.066C616.612 174.066 610.682 217.017 606.17 222.805C601.658 228.593 554.904 249.194 554.904 249.194C554.904 249.194 570.166 256.045 569.811 272.252C569.811 272.252 628.685 257.557 634.496 244.044C640.308 230.53 657.507 162.396 642.482 145.858C627.456 129.321 616.612 174.066 616.612 174.066Z" fill="#E6E6E6"/>
<path d="M581.955 122.564C581.955 122.564 573.828 141.464 591.405 148.552C608.982 155.639 628.425 136.408 628.425 136.408C628.425 136.408 602.296 119.871 581.955 122.564Z" fill="#6CA3D8"/>
<path d="M612.242 128.612L618.975 131.4L600.335 145.173L596.957 138.771L587.247 140.566C587.247 140.566 589.231 123.698 589.609 123.32C589.987 122.942 612.242 128.612 612.242 128.612Z" fill="#4687BC"/>
<path d="M633.622 95.5132C631.662 86.8192 624.739 83.7007 616.92 83.7007C615.515 82.0581 613.806 80.7024 611.887 79.7081C605.934 76.8731 597.713 77.1802 592.751 81.6454C590.772 80.9578 588.649 80.787 586.585 81.1492C580.443 82.3069 578.482 88.2367 578.671 93.6941C578.671 93.9067 578.671 94.1194 578.671 94.3556C577.277 103.806 585.498 109.617 585.498 109.617L611.486 130.431C615.016 129.378 618.219 127.443 620.794 124.808C621.674 123.742 622.354 122.525 622.802 121.217C623.053 121.082 623.29 120.924 623.511 120.745C630.787 114.862 635.772 105.034 633.622 95.5132Z" fill="#895851"/>
<path d="M586.396 102.152C586.396 105.412 585.38 136.125 599.248 136.503C613.116 136.881 618.148 117.367 618.148 117.367C618.148 117.367 606.761 111.508 606.761 106.759C606.761 102.01 607.682 100.12 602.036 97.6632C596.389 95.2062 586.278 96.6946 586.396 102.152Z" fill="#FFE0CE"/>
<path d="M681.888 358.908C681.888 358.908 679.739 460.661 676.644 463.567C673.549 466.473 659.917 369.776 659.917 369.776" fill="#844040"/>
<path d="M322.481 270.055C322.481 270.055 290.635 407.552 296.116 411.19C301.597 414.829 340.649 282.718 340.649 282.718" fill="#844040"/>
<path d="M538.768 410.931C540.871 416.955 533.641 534.135 537.091 535.742C540.54 537.348 558.967 412.254 558.967 412.254" fill="#844040"/>
<path d="M704.639 335.992V356.924H697.575L695.142 345.395" fill="#A85C5C"/>
<path d="M292.194 269.677V249.123L300.841 260.511L292.194 269.677Z" fill="#A85C5C"/>
<path d="M300.557 253.943L410.295 190.58C414.185 188.335 418.597 187.153 423.088 187.153C427.58 187.153 431.992 188.335 435.881 190.58L696.134 340.835C698.734 342.337 700.894 344.496 702.395 347.096C703.896 349.696 704.686 352.646 704.686 355.648C704.686 358.651 703.896 361.6 702.395 364.201C700.894 366.801 698.734 368.96 696.134 370.461L586.207 433.942C582.486 436.09 578.266 437.221 573.969 437.221C569.673 437.221 565.452 436.09 561.732 433.942L300.557 283.143C297.997 281.662 295.871 279.533 294.393 276.97C292.915 274.407 292.137 271.501 292.137 268.543C292.137 265.585 292.915 262.678 294.393 260.116C295.871 257.553 297.997 255.424 300.557 253.943Z" fill="#A85C5C"/>
<path d="M299.329 235.255L409.067 171.846C412.962 169.591 417.383 168.404 421.883 168.404C426.384 168.404 430.805 169.591 434.7 171.846L694.953 322.101C697.553 323.602 699.712 325.761 701.214 328.361C702.715 330.962 703.505 333.911 703.505 336.914C703.505 339.916 702.715 342.866 701.214 345.466C699.712 348.066 697.553 350.225 694.953 351.726L584.979 415.183C581.258 417.331 577.037 418.462 572.741 418.462C568.445 418.462 564.224 417.331 560.503 415.183L299.329 264.456C296.768 262.974 294.642 260.845 293.164 258.283C291.686 255.72 290.908 252.814 290.908 249.855C290.908 246.897 291.686 243.991 293.164 241.428C294.642 238.866 296.768 236.737 299.329 235.255Z" fill="#C96F6F"/>
<path d="M442.354 274.425C444.032 274.85 493.952 305.138 493.952 305.138L567 263.676L516.891 233.861L442.354 274.425Z" fill="white"/>
<path d="M436.826 308.138C438.504 308.564 488.423 338.851 488.423 338.851L561.425 297.413L511.363 267.598L436.826 308.138Z" fill="#BF59C0"/>
<path d="M418.422 487.003C418.422 487.003 417.926 495.602 420.572 498.012C423.218 500.422 437.582 493.736 441.41 496.099C445.237 498.461 426.998 515.707 420.572 516.652C414.146 517.597 408.193 508.454 408.193 508.454V521.495L400.916 525.63L395.577 522.44L397.16 487.003H418.422Z" fill="#8787D1"/>
<path d="M393.829 493.335C401.483 499.926 409.705 499.714 419.202 495.697C426.029 483.696 434.062 410.647 417.005 398.835C398.672 386.29 370.015 388.534 365.219 389.905L295.005 401.41C289.619 410.576 303.888 458.582 335.168 459.929C366.447 461.276 386.245 449.534 386.245 449.534L393.829 493.335Z" fill="#124577"/>
<path d="M366.542 292.711C363.218 294.155 360.456 296.644 358.675 299.799V300.035C353.737 304.075 352.957 311.446 347.713 315.084C347.713 315.226 342.775 318.699 342.728 318.841C342.681 318.982 343.2 312.084 343.177 312.131C341.476 316.856 339.798 321.581 338.452 326.306C338.687 326.452 338.941 326.563 339.208 326.637L338.664 326.897L338.192 327.18C338.128 327.419 338.01 327.639 337.846 327.824C337.681 328.009 337.476 328.152 337.247 328.243C337.046 328.937 337.05 329.675 337.26 330.366C337.47 331.057 337.876 331.673 338.429 332.138C338.981 332.604 339.657 332.898 340.374 332.987C341.091 333.076 341.819 332.954 342.468 332.638L358.344 324.889C360.457 324.435 362.533 323.827 364.557 323.07C364.557 321.416 364.817 319.762 364.983 318.108C366.235 316.174 366.988 313.96 367.174 311.663C367.36 309.366 366.972 307.059 366.046 304.949C366.127 304.842 366.222 304.747 366.329 304.666V304.5C367.641 303.581 368.758 302.41 369.613 301.055C370.469 299.701 371.047 298.189 371.314 296.61C371.338 294.412 369.07 291.554 366.542 292.711Z" fill="#F7931E"/>
<path d="M346.342 307.737C346.342 307.737 364.439 318.982 366.329 328.338C366.329 328.338 353.619 355.955 354.517 357.042C368.881 375.777 325.812 345.23 325.812 345.23C325.812 345.23 334.483 318.959 346.342 307.737Z" fill="#BF59C0"/>
<path d="M387.45 314.588C388.938 327.086 372.992 344.497 366.188 347.852C356.974 352.459 353.383 314.139 312.89 314.305C310.267 314.305 297.132 308.705 290.233 325.975C283.335 343.245 290.233 392.739 294.84 401.363C298.904 408.97 325.907 427.35 364.487 407.694L365.054 389.857C365.054 389.857 387.804 389.361 399.877 372.635C411.122 357.019 417.785 333.583 416.721 322.077C407.768 318.132 396.498 311.659 387.45 314.588Z" fill="#BF59C0"/>
<path d="M346.342 307.737C346.342 307.737 364.439 318.982 366.329 328.338C366.329 328.338 353.619 355.955 354.517 357.042C368.881 375.777 325.812 345.23 325.812 345.23C325.812 345.23 334.483 318.959 346.342 307.737Z" fill="#8787D1"/>
<path d="M370.7 260.298L418.753 270.905L410.65 338.307L364.439 323.329" fill="#124577"/>
<path d="M420.289 299.421C420.167 298.883 419.93 298.379 419.595 297.941C419.261 297.504 418.835 297.144 418.349 296.886C417.862 296.628 417.325 296.478 416.775 296.447C416.225 296.415 415.675 296.503 415.162 296.704C414.922 295.763 414.373 294.931 413.603 294.341C412.978 293.873 412.227 293.604 411.447 293.571C410.667 293.537 409.895 293.74 409.232 294.152C408.816 294.39 408.441 294.693 408.122 295.05L407.886 294.79C407.359 294.17 406.659 293.724 405.875 293.509C405.091 293.294 404.26 293.321 403.491 293.585C403.036 293.794 402.626 294.091 402.286 294.459C401.84 292.256 401.272 290.079 400.585 287.939C399.948 285.789 398.884 281.844 396.238 281.371C394.514 281.064 393.711 282.316 393.356 283.734C392.919 284.749 392.852 285.886 393.167 286.947C393.288 288.4 393.501 289.844 393.805 291.27C394.041 293.302 394.254 295.333 394.443 297.365C394.091 297.363 393.751 297.498 393.498 297.743C392.237 298.673 391.306 299.981 390.838 301.476C390.371 302.971 390.392 304.577 390.899 306.059C392.044 310.315 393.627 314.44 395.624 318.368C395.704 318.542 395.819 318.697 395.962 318.824C396.105 318.952 396.272 319.048 396.454 319.108C396.636 319.168 396.828 319.19 397.018 319.172C397.209 319.154 397.394 319.098 397.561 319.006L397.774 319.762C397.853 320.104 398.05 320.407 398.331 320.618C398.612 320.829 398.958 320.934 399.309 320.914C399.659 320.895 399.992 320.751 400.247 320.51C400.502 320.269 400.664 319.945 400.704 319.596V319.313C400.85 319.432 401.019 319.52 401.2 319.573L401.318 321.226C401.318 322.738 403.68 322.738 404.176 321.486L404.318 322.691C404.507 324.369 407.153 324.179 407.248 322.526V321.179C407.496 321.169 407.738 321.104 407.959 320.99C408.179 320.875 408.372 320.714 408.523 320.518C408.779 320.848 409.151 321.068 409.563 321.132C409.763 321.293 410.003 321.396 410.257 321.429C410.511 321.462 410.77 321.425 411.004 321.321V321.675C411.13 322.074 411.402 322.41 411.766 322.616C412.13 322.822 412.558 322.883 412.965 322.786C412.965 322.951 412.965 323.116 412.965 323.282C412.965 325.172 415.965 325.432 415.918 323.518C415.918 319.722 415.816 315.927 415.611 312.131C415.773 312.049 415.917 311.936 416.036 311.8C419.131 308.752 421.777 303.649 420.289 299.421ZM404.413 296.562C404.533 296.482 404.67 296.43 404.813 296.409C404.956 296.389 405.102 296.401 405.24 296.444C405.163 296.554 405.099 296.673 405.051 296.798H404.153C404.222 296.682 404.31 296.578 404.413 296.491V296.562Z" fill="#F7931E"/>
<path d="M334.483 268.708C334.483 269.133 336.987 294.436 331.317 300.011C325.647 305.587 310.598 303.295 306.865 297.2C303.132 291.105 298.549 283.025 302.542 273.575C306.534 264.125 333.821 262.471 334.483 268.708Z" fill="#F7931E"/>
<path d="M326.403 285.246C326.597 284.803 326.66 284.314 326.585 283.837C326.509 283.36 326.299 282.914 325.978 282.553C324.24 280.402 321.825 278.903 319.127 278.3C317.903 278.01 316.616 278.18 315.51 278.776C314.404 279.373 313.555 280.355 313.126 281.537C311.401 287.278 320.709 288.979 324.513 289.451C325.182 289.445 325.821 289.177 326.294 288.704C326.766 288.231 327.035 287.592 327.041 286.923C327.057 286.302 326.828 285.699 326.403 285.246Z" fill="#FFE8E6"/>
<path d="M387.45 314.588C388.938 327.086 372.992 344.497 366.188 347.852C356.974 352.459 353.383 314.139 312.89 314.305C310.267 314.305 297.132 308.705 290.233 325.975C283.335 343.245 290.233 392.739 294.84 401.363C298.904 408.97 325.907 427.35 364.487 407.694L365.054 389.857C365.054 389.857 387.804 389.361 399.877 372.635C411.122 357.019 417.785 333.583 416.721 322.077C407.768 318.132 396.498 311.659 387.45 314.588Z" fill="#8787D1"/>
<path d="M384.379 385.487C373.883 389.235 362.435 389.362 351.859 385.846C341.283 382.331 332.188 375.376 326.025 366.09C325.222 364.862 323.214 366.091 324.041 367.248C330.463 376.994 339.967 384.305 351.033 388.014C362.1 391.722 374.09 391.615 385.088 387.707C386.363 387.211 385.773 384.99 384.379 385.487Z" fill="white"/>
<path d="M361.604 343.576C359.538 338.769 356.479 334.453 352.627 330.913C348.209 326.897 342.752 324.321 338.145 320.565C337.223 319.809 335.782 321.132 336.822 321.888C341.169 325.432 346.272 327.913 350.548 331.574C354.638 335.118 357.869 339.545 359.998 344.521C360.47 345.631 362.077 344.686 361.604 343.576Z" fill="white"/>
<path d="M335.073 272.276L327.017 276.504C327.017 276.504 333.254 300.129 335.121 306.461C336.987 312.792 329.498 321.439 305.164 322.077C280.83 322.715 282.059 285.883 287.682 272.134C293.304 258.384 310.149 252.147 323.875 255.903C327.512 256.625 330.722 258.744 332.815 261.805C334.908 264.865 335.719 268.624 335.073 272.276Z" fill="#B24D16"/>
<path d="M378.567 447.313C378.32 446.704 377.922 446.168 377.411 445.755C376.9 445.342 376.292 445.065 375.645 444.952C374.997 444.838 374.332 444.892 373.711 445.106C373.089 445.321 372.533 445.69 372.094 446.179C366.909 451.851 360.315 456.049 352.981 458.346C340.082 462.22 321.324 460.378 314.543 447.1C302.258 423.027 313.716 392.905 300.912 369.422C298.706 365.194 295.379 361.655 291.296 359.192C279.744 352.53 272.042 359.83 268.356 368.642C262.875 381.825 263.064 398.244 263.324 412.301C263.338 423.655 264.175 434.993 265.828 446.226C265.828 446.226 273.719 493.335 335.239 480.695C345.873 478.793 356.097 475.06 365.455 469.662C370.234 466.947 374.426 463.309 377.787 458.96C378.889 457.242 379.539 455.273 379.675 453.237C379.812 451.2 379.43 449.163 378.567 447.313Z" fill="#BF59C0"/>
<path d="M613.234 170.806C612.667 178.98 612.124 187.178 611.462 195.353C610.706 204.495 609.501 213.331 603.831 220.844C594.122 233.72 578.009 238.563 563.196 242.933C563.041 242.975 562.896 243.047 562.769 243.145C562.641 243.243 562.535 243.366 562.455 243.505C562.293 243.786 562.249 244.12 562.334 244.433C562.419 244.747 562.624 245.014 562.906 245.175C563.187 245.337 563.521 245.38 563.834 245.296C579.12 240.783 595.681 235.68 605.721 222.38C610.042 216.309 612.639 209.182 613.234 201.755C614.463 191.525 614.888 181.154 615.597 170.877C615.691 169.294 613.329 169.294 613.234 170.806Z" fill="#B6BBBF"/>
<path d="M570.615 167.617L568.63 229.538C568.63 231.05 570.993 231.05 570.993 229.538L572.977 167.617C573.024 166.105 570.662 166.105 570.615 167.617Z" fill="#B6BBBF"/>
<path opacity="0.32" d="M563.385 381.73C567.85 383.1 572.339 384.447 576.946 385.368C579.751 385.865 582.583 386.189 585.427 386.337L590.152 383.1L623.227 358.554L597.972 350.167L538.248 370.981C545.737 376.415 554.739 379.084 563.385 381.73Z" fill="url(#paint2_linear)"/>
<path d="M610.021 331.882C603.961 331.594 598.157 329.348 593.483 325.479V343.127C593.483 347.989 595.415 352.652 598.853 356.091C602.291 359.529 606.954 361.46 611.816 361.46C616.679 361.46 621.342 359.529 624.78 356.091C628.218 352.652 630.15 347.989 630.15 343.127V325.172C623.7 327.771 616.612 332.496 610.021 331.882Z" fill="#BF59C0"/>
<path d="M611.698 335.071C621.823 335.071 630.031 330.724 630.031 325.361C630.031 319.998 621.823 315.651 611.698 315.651C601.573 315.651 593.365 319.998 593.365 325.361C593.365 330.724 601.573 335.071 611.698 335.071Z" fill="#5ED18D"/>
<path d="M611.699 327.015C611.699 327.015 599.248 325.172 595.941 305.02C595.941 305.02 606.572 310.879 611.699 327.015Z" fill="#5ED18D"/>
<path d="M613.541 324.439C613.541 324.439 599.366 298.783 613.541 281.56C617.905 295.52 617.905 310.479 613.541 324.439Z" fill="#5ED18D"/>
<path d="M611.699 308.327C611.699 308.327 599.248 306.485 595.941 286.332C595.941 286.332 606.572 292.191 611.699 308.327Z" fill="#5ED18D"/>
<path d="M613.21 316.549C613.21 316.549 610.092 304.358 627.385 293.515C627.409 293.515 626.062 305.587 613.21 316.549Z" fill="#5ED18D"/>
<path d="M611.698 335.071C621.823 335.071 630.031 330.724 630.031 325.361C630.031 319.998 621.823 315.651 611.698 315.651C601.573 315.651 593.365 319.998 593.365 325.361C593.365 330.724 601.573 335.071 611.698 335.071Z" fill="#146666"/>
<path d="M611.699 327.015C611.699 327.015 599.248 325.172 595.941 305.02C595.941 305.02 606.572 310.879 611.699 327.015Z" fill="#5ED18D"/>
<path d="M613.541 324.439C613.541 324.439 599.366 298.783 613.541 281.56C617.905 295.52 617.905 310.479 613.541 324.439Z" fill="#5ED18D"/>
<path d="M611.699 308.327C611.699 308.327 599.248 306.485 595.941 286.332C595.941 286.332 606.572 292.191 611.699 308.327Z" fill="#5ED18D"/>
<path d="M613.21 316.549C613.21 316.549 610.092 304.358 627.385 293.515C627.409 293.515 626.062 305.587 613.21 316.549Z" fill="#5ED18D"/>
<path opacity="0.32" d="M356.737 258.479C361.203 259.849 365.691 261.196 370.298 262.117C373.11 262.684 361.557 262.873 364.392 263.086L368.763 260.014L416.556 235.326L380.599 220.183L331.6 247.753C338.877 253.163 347.996 255.833 356.737 258.479Z" fill="url(#paint3_linear)"/>
<path d="M368.786 179.996V230.908C368.786 230.908 417.714 233.625 417.714 230.908V179.996" fill="#BF59C0"/>
<path d="M393.262 241.634C406.766 241.634 417.714 236.631 417.714 230.459C417.714 224.288 406.766 219.285 393.262 219.285C379.757 219.285 368.81 224.288 368.81 230.459C368.81 236.631 379.757 241.634 393.262 241.634Z" fill="#BF59C0"/>
<path d="M393.262 191.171C406.766 191.171 417.714 186.168 417.714 179.996C417.714 173.825 406.766 168.822 393.262 168.822C379.757 168.822 368.81 173.825 368.81 179.996C368.81 186.168 379.757 191.171 393.262 191.171Z" fill="#3129A3"/>
<path d="M378 188.69H378.165C379.11 189.021 380.055 189.305 381.024 189.564L374.362 133.833C373.791 133.617 373.171 133.563 372.571 133.675C371.971 133.788 371.414 134.063 370.96 134.471L377.787 188.525L378 188.69Z" fill="#F78B72"/>
<path d="M385.607 190.415L387.686 138.109C387.163 137.79 386.563 137.621 385.95 137.621C385.337 137.621 384.736 137.79 384.213 138.109L382.512 189.895C383.533 190.127 384.567 190.301 385.607 190.415Z" fill="#F78B72"/>
<path d="M393.262 191.171L399.971 136.645L413.579 143.732L408.075 189.541C403.275 190.971 398.257 191.524 393.262 191.171Z" fill="#FCB749"/>
<defs>
<linearGradient id="paint0_linear" x1="435.692" y1="479.277" x2="511.056" y2="347.946" gradientUnits="userSpaceOnUse">
<stop stop-color="white" stop-opacity="0"/>
<stop offset="0.99" stop-color="#0048AA"/>
</linearGradient>
<linearGradient id="paint1_linear" x1="26492" y1="27726.3" x2="31920.2" y2="20273" gradientUnits="userSpaceOnUse">
<stop stop-color="white" stop-opacity="0"/>
<stop offset="0.99" stop-color="#0048AA"/>
</linearGradient>
<linearGradient id="paint2_linear" x1="569.669" y1="375.162" x2="601.138" y2="345.584" gradientUnits="userSpaceOnUse">
<stop stop-opacity="0"/>
<stop offset="0.99" stop-color="#552800"/>
</linearGradient>
<linearGradient id="paint3_linear" x1="13383.3" y1="4763.19" x2="13860.2" y2="3874.98" gradientUnits="userSpaceOnUse">
<stop stop-opacity="0"/>
<stop offset="0.99" stop-color="#552800"/>
</linearGradient>
</defs>
</svg>
