<svg width="827" height="624" viewBox="0 0 827 624" fill="none" xmlns="http://www.w3.org/2000/svg">
<path d="M368.284 178.65L62.5212 356.455C59.5485 358.182 57.086 360.666 55.3838 363.653C53.6816 366.64 52.8004 370.024 52.8298 373.462C52.8592 376.9 53.7981 380.269 55.5512 383.226C57.3042 386.184 59.8089 388.624 62.8107 390.3L437.028 599.759C441.551 602.289 446.638 603.638 451.82 603.681C457.002 603.725 462.112 602.461 466.676 600.007L754.245 445.337C757.909 443.363 760.981 440.449 763.147 436.895C765.312 433.34 766.492 429.273 766.566 425.112C766.64 420.95 765.604 416.844 763.566 413.215C761.528 409.586 758.56 406.565 754.968 404.463L368.284 178.65Z" fill="#AAACF9"/>
<path opacity="0.32" d="M324.163 451.602C341.282 434.028 359.683 417.757 375.975 399.501L310.125 364.643L170.424 439.321C196.537 453.008 234.765 482.283 272.083 507.652C289.45 488.961 306.362 469.878 324.163 451.602Z" fill="url(#paint0_linear)"/>
<path opacity="0.32" d="M217.956 373.244C246.715 351.969 275.37 330.529 305.37 311.094L243.717 278.469L113.837 358.647C133.54 368.984 150.369 382.692 178.281 402.416C191.471 392.616 204.683 382.981 217.956 373.244Z" fill="url(#paint1_linear)"/>
<path opacity="0.32" d="M381.495 498.265C412.508 481.581 479.04 416.785 509.68 399.728L392.825 337.889L253.269 412.588C285.667 429.5 336.692 470.54 381.495 498.265Z" fill="url(#paint2_linear)"/>
<path d="M444.389 313.431L405.106 332.348C403.63 333.063 402.375 334.164 401.476 335.536C400.577 336.908 400.067 338.498 400.001 340.137C399.936 341.776 400.316 343.401 401.102 344.841C401.888 346.28 403.051 347.479 404.465 348.309L497.606 402.623C499.62 403.799 502.011 404.152 504.28 403.609C506.548 403.066 508.52 401.668 509.784 399.708L532.423 364.56" fill="#56403D"/>
<path d="M641.793 212.682L320.938 27.847C319.357 26.8993 317.551 26.3916 315.708 26.3764C313.865 26.3613 312.051 26.8392 310.455 27.7608C308.859 28.6823 307.538 30.0139 306.629 31.6177C305.72 33.2214 305.257 35.0389 305.287 36.882V233.294C305.288 234.708 305.661 236.096 306.368 237.319C307.076 238.542 308.094 239.557 309.319 240.262L650.828 437.398C651.42 437.739 652.09 437.919 652.773 437.919C653.455 437.919 654.126 437.739 654.717 437.397C655.308 437.056 655.798 436.564 656.139 435.973C656.48 435.382 656.659 434.711 656.659 434.028V238.401C656.66 233.186 655.287 228.062 652.677 223.547C650.067 219.031 646.313 215.284 641.793 212.682Z" fill="#7524DD"/>
<path d="M326.52 45.2347L630.443 220.104C633.689 221.971 636.387 224.661 638.263 227.902C640.14 231.143 641.129 234.821 641.132 238.567V379.384C641.133 380.733 640.779 382.058 640.106 383.226C639.434 384.395 638.466 385.366 637.299 386.043C636.132 386.719 634.809 387.077 633.46 387.081C632.112 387.084 630.786 386.733 629.616 386.062L319.636 208.278C318.48 207.613 317.519 206.655 316.851 205.501C316.184 204.346 315.832 203.037 315.831 201.703V51.4165C315.832 50.1655 316.161 48.9367 316.786 47.8531C317.411 46.7696 318.31 45.8695 319.393 45.2433C320.476 44.617 321.705 44.2865 322.956 44.285C324.207 44.2835 325.436 44.611 326.52 45.2347Z" fill="white"/>
<path d="M457.638 310.247C459.432 309.902 460.884 309.612 460.882 309.601C460.88 309.59 459.424 309.861 457.63 310.207C455.836 310.552 454.384 310.841 454.386 310.852C454.388 310.864 455.844 310.593 457.638 310.247Z" fill="#AB643C"/>
<path d="M618.059 228.002C619.886 228.002 621.367 226.391 621.367 224.404C621.367 222.417 619.886 220.807 618.059 220.807C616.232 220.807 614.75 222.417 614.75 224.404C614.75 226.391 616.232 228.002 618.059 228.002Z" fill="#659FE4"/>
<path d="M607.514 222.771C609.341 222.771 610.822 221.16 610.822 219.173C610.822 217.187 609.341 215.576 607.514 215.576C605.687 215.576 604.206 217.187 604.206 219.173C604.206 221.16 605.687 222.771 607.514 222.771Z" fill="#C5E9FF"/>
<path d="M276.528 385.752L276.507 387.716L277.5 388.957" fill="#ADCEE1"/>
<path d="M316.141 361.976L277.645 385.607C277.279 385.815 276.975 386.115 276.764 386.478C276.553 386.842 276.441 387.254 276.441 387.675C276.441 388.095 276.553 388.508 276.764 388.871C276.975 389.234 277.279 389.535 277.645 389.742L335.783 422.946C336.594 423.414 337.513 423.661 338.45 423.661C339.386 423.661 340.306 423.414 341.117 422.946L379.49 400.555C382.281 398.281 382.095 393.981 379.49 393.794L321.6 361.893C320.764 361.422 319.818 361.182 318.859 361.196C317.9 361.211 316.962 361.48 316.141 361.976Z" fill="#88D3D8"/>
<path d="M316.141 360.342L277.645 384.015C277.279 384.223 276.975 384.523 276.764 384.887C276.553 385.25 276.441 385.663 276.441 386.083C276.441 386.503 276.553 386.916 276.764 387.279C276.975 387.642 277.279 387.943 277.645 388.15L335.845 421.23C336.656 421.698 337.575 421.945 338.512 421.945C339.448 421.945 340.368 421.698 341.179 421.23L379.49 398.922C379.941 398.663 380.315 398.29 380.576 397.839C380.836 397.389 380.973 396.878 380.973 396.358C380.973 395.838 380.836 395.327 380.576 394.877C380.315 394.427 379.941 394.054 379.49 393.795L321.6 360.26C320.764 359.789 319.818 359.549 318.859 359.563C317.9 359.578 316.962 359.847 316.141 360.342Z" fill="white"/>
<path d="M317.713 357.138C317.713 357.138 333.86 305.74 333.777 305.74C333.694 305.74 334.273 303.445 337.126 304.768L398.159 341.032C398.159 341.032 401.116 342.252 400.537 345.001C399.958 347.751 384.741 395.304 384.741 395.304C384.427 395.756 383.977 396.096 383.456 396.274C382.936 396.453 382.372 396.46 381.847 396.296C379.986 395.717 319.139 360.032 319.139 360.032C318.575 359.826 318.112 359.41 317.846 358.871C317.58 358.332 317.533 357.711 317.713 357.138Z" fill="#053855"/>
<path d="M334.77 309.44L397.291 346.221L384.121 389.804L320.793 354.098L334.77 309.44Z" fill="#7524DD"/>
<path d="M313.764 365.78L299.684 374.463C299.431 374.614 299.222 374.827 299.077 375.082C298.931 375.338 298.855 375.627 298.855 375.921C298.855 376.215 298.931 376.504 299.077 376.76C299.222 377.015 299.431 377.228 299.684 377.379L349.966 406.324C350.72 406.759 351.576 406.988 352.447 406.988C353.318 406.988 354.173 406.759 354.928 406.324C358.174 404.442 363.756 401.072 367.188 398.984C367.492 398.8 367.743 398.54 367.917 398.231C368.092 397.921 368.183 397.572 368.183 397.216C368.183 396.861 368.092 396.512 367.917 396.202C367.743 395.892 367.492 395.633 367.188 395.449L316.596 365.759C316.167 365.505 315.676 365.373 315.177 365.377C314.678 365.38 314.19 365.52 313.764 365.78Z" fill="#7524DD"/>
<path d="M314.425 389.515L331.979 399.48C332.249 399.633 332.475 399.856 332.632 400.124C332.789 400.393 332.871 400.699 332.871 401.01C332.871 401.321 332.789 401.627 332.632 401.896C332.475 402.165 332.249 402.387 331.979 402.54L321.641 408.556C321.286 408.761 320.883 408.869 320.473 408.869C320.063 408.869 319.66 408.761 319.305 408.556L301.338 398.219C301.11 398.092 300.92 397.906 300.788 397.68C300.655 397.455 300.585 397.198 300.585 396.937C300.585 396.676 300.655 396.419 300.788 396.194C300.92 395.968 301.11 395.783 301.338 395.655L312.13 389.453C312.486 389.265 312.884 389.172 313.286 389.182C313.688 389.193 314.081 389.308 314.425 389.515Z" fill="#7524DD"/>
<path opacity="0.1" d="M313.764 365.78L299.684 374.463C299.431 374.614 299.222 374.827 299.077 375.082C298.931 375.338 298.855 375.627 298.855 375.921C298.855 376.215 298.931 376.504 299.077 376.76C299.222 377.015 299.431 377.228 299.684 377.379L349.966 406.324C350.72 406.759 351.576 406.988 352.447 406.988C353.318 406.988 354.173 406.759 354.928 406.324C358.174 404.442 363.756 401.072 367.188 398.984C367.492 398.8 367.743 398.54 367.917 398.231C368.092 397.921 368.183 397.572 368.183 397.216C368.183 396.861 368.092 396.512 367.917 396.202C367.743 395.892 367.492 395.633 367.188 395.449L316.596 365.759C316.167 365.505 315.676 365.373 315.177 365.377C314.678 365.38 314.19 365.52 313.764 365.78Z" fill="#053855"/>
<path opacity="0.1" d="M314.425 389.515L331.979 399.48C332.249 399.633 332.475 399.856 332.632 400.124C332.789 400.393 332.871 400.699 332.871 401.01C332.871 401.321 332.789 401.627 332.632 401.896C332.475 402.165 332.249 402.387 331.979 402.54L321.641 408.556C321.286 408.761 320.883 408.869 320.473 408.869C320.063 408.869 319.66 408.761 319.305 408.556L301.338 398.219C301.11 398.092 300.92 397.906 300.788 397.68C300.655 397.455 300.585 397.198 300.585 396.937C300.585 396.676 300.655 396.419 300.788 396.194C300.92 395.968 301.11 395.783 301.338 395.655L312.13 389.453C312.486 389.265 312.884 389.172 313.286 389.182C313.688 389.193 314.081 389.308 314.425 389.515Z" fill="#053855"/>
<path d="M246.549 356.559C238.291 363.668 232.045 372.823 228.438 383.105C222.07 400.659 237.969 429.376 237.969 429.376L262.779 409.818" fill="#FF8F6F"/>
<path d="M226.66 452.243C226.672 456.155 227.908 459.966 230.196 463.14C232.484 466.315 235.708 468.693 239.416 469.941C244.491 471.644 249.849 472.347 255.191 472.008C266.149 471.305 275.742 466.178 283.806 459.107C282.276 439.672 276.797 426.027 272.104 419.514L242.166 405.042C242.022 407.75 226.247 426.027 226.619 448.294C226.632 449.686 226.646 451.002 226.66 452.243Z" fill="#3E2928"/>
<path d="M271.566 386.083L239.83 384.532L234.351 422.677C243.8 429.19 268.754 425.262 274.419 424.29C272.744 411.658 272.91 398.694 271.566 386.083Z" fill="#FF8F6F"/>
<path d="M318.395 380.831L315.211 383.622C317.888 382.09 320.649 380.709 323.481 379.487C325.404 378.619 326.458 381.72 324.556 382.589L323.584 383.043C324.604 382.658 325.631 382.285 326.665 381.927C327.076 381.784 327.527 381.811 327.919 382.001C328.31 382.191 328.61 382.529 328.753 382.94C328.896 383.351 328.869 383.802 328.679 384.194C328.489 384.586 328.151 384.886 327.74 385.028C325.049 385.95 322.407 387.006 319.822 388.192C322.146 387.451 324.514 386.857 326.913 386.414C328.98 386.021 329.167 389.308 327.12 389.68C324.392 390.188 321.709 390.914 319.098 391.851C319.935 391.857 320.765 391.996 321.558 392.265C322.509 392.513 324.949 392.657 325.383 393.608C325.489 393.847 325.537 394.108 325.522 394.368C325.508 394.629 325.433 394.883 325.301 395.109C325.17 395.335 324.988 395.526 324.768 395.668C324.549 395.81 324.299 395.897 324.039 395.924L311.738 397.185C310.517 397.884 309.403 398.754 308.43 399.77C307.186 398.291 305.868 396.876 304.481 395.531C303.255 394.331 301.964 393.199 300.615 392.141C301.827 390.983 303.068 389.859 304.336 388.77C304.605 388.398 305.266 388.584 306.011 387.964C310.146 384.408 311.117 384.16 315.625 379.922C318.953 376.614 320.338 379.136 318.395 380.831Z" fill="#FFB5A9"/>
<path d="M261.311 363.464C261.311 363.464 272.869 366.586 277.562 374.071C280.495 379.218 283.078 384.558 285.294 390.052L306.3 385.152C306.3 385.152 312.399 392.285 316.514 397.392C316.514 397.392 296.004 411.864 285.294 414.242C274.585 416.62 263.213 398.322 263.213 398.322C263.213 398.322 260.856 405.889 261.311 397.805" fill="#FF8F6F"/>
<path d="M269.767 387.778C266.425 385.07 263.893 381.493 262.449 377.441C261.063 372.727 262.8 368.571 264.516 364.167C266.264 359.815 267.284 355.205 267.535 350.522C267.679 345.911 267.142 341.321 266.832 336.732C266.786 336.534 266.786 336.329 266.832 336.132C265.302 330.942 262.118 326.559 255.874 326.043C239.727 324.678 238.817 342.583 238.941 349.819C239.065 357.055 239.83 361.996 234.475 365.056C229.12 368.116 225.254 376.055 230.34 382.506C235.426 388.957 230.857 386.641 227.466 392.327C224.076 398.012 224.944 405.207 231.932 407.791C238.92 410.376 271.421 405.517 274.419 402.499C275.477 401.291 276.026 399.72 275.949 398.116C275.216 394.032 273.018 390.356 269.767 387.778Z" fill="#007F68"/>
<path d="M275.784 429.397C279.691 428.549 317.568 425.531 326.396 438.701C335.224 451.87 287.114 470.623 255.191 472.132C223.269 473.641 258.644 433.077 275.784 429.397Z" fill="#3E2928"/>
<path d="M227.797 234.308V299.33L278.161 328.42L319.181 304.024V243.611" fill="#3ACEB2"/>
<path d="M278.162 328.42V264.245L319.181 240.221V304.024L278.162 328.42Z" fill="#4BE2C5"/>
<path d="M269.271 209.746L227.797 234.307L278.161 264.245L319.181 240.221L269.271 209.746Z" fill="#52EFD1"/>
<path d="M234.372 244.997V258.456L272.104 279.999V266.788L234.372 244.997Z" fill="#7374B7"/>
<path d="M268.294 272.709C268.829 272.545 269.051 271.722 268.79 270.87C268.529 270.019 267.883 269.461 267.348 269.626C266.813 269.79 266.592 270.613 266.853 271.465C267.114 272.316 267.76 272.873 268.294 272.709Z" fill="#F7931E"/>
<path d="M265.052 270.823C265.587 270.659 265.809 269.835 265.547 268.984C265.286 268.132 264.641 267.575 264.106 267.739C263.571 267.904 263.349 268.727 263.611 269.578C263.872 270.43 264.517 270.987 265.052 270.823Z" fill="#D9E021"/>
<path d="M261.043 267.78L237.721 254.383" stroke="#F2F2F2" stroke-width="0.25375" stroke-miterlimit="10"/>
<path d="M233.483 263.873V277.332L271.215 298.855V285.664L233.483 263.873Z" fill="#7374B7"/>
<path d="M267.4 291.574C267.935 291.41 268.157 290.586 267.896 289.735C267.634 288.883 266.989 288.326 266.454 288.49C265.919 288.655 265.697 289.478 265.958 290.329C266.22 291.181 266.865 291.738 267.4 291.574Z" fill="#F7931E"/>
<path d="M264.178 289.708C264.713 289.544 264.935 288.721 264.674 287.869C264.412 287.018 263.767 286.461 263.232 286.625C262.697 286.789 262.475 287.612 262.737 288.464C262.998 289.315 263.643 289.872 264.178 289.708Z" fill="#D9E021"/>
<path d="M260.154 286.657L236.832 273.259" stroke="#F2F2F2" stroke-width="0.25375" stroke-miterlimit="10"/>
<path d="M233.483 282.708V296.167L271.215 317.69V304.499L233.483 282.708Z" fill="#7374B7"/>
<path d="M267.385 310.427C267.92 310.263 268.141 309.44 267.88 308.589C267.619 307.737 266.973 307.18 266.439 307.344C265.904 307.508 265.682 308.331 265.943 309.183C266.204 310.034 266.85 310.592 267.385 310.427Z" fill="#F7931E"/>
<path d="M264.163 308.541C264.698 308.377 264.92 307.554 264.658 306.702C264.397 305.851 263.752 305.294 263.217 305.458C262.682 305.622 262.46 306.445 262.721 307.297C262.983 308.148 263.628 308.705 264.163 308.541Z" fill="#D9E021"/>
<path d="M260.154 305.492L236.832 292.094" stroke="#F2F2F2" stroke-width="0.25375" stroke-miterlimit="10"/>
<path d="M319.181 262.57L278.348 286.657L227.797 257.277" stroke="#1B1464" stroke-width="0.25375" stroke-miterlimit="10"/>
<path d="M319.181 281.405L278.348 305.492L227.797 276.133" stroke="#1B1464" stroke-width="0.25375" stroke-miterlimit="10"/>
<path d="M691.806 209.022V312.852C691.807 314.896 691.266 316.905 690.237 318.672C689.209 320.439 687.73 321.901 685.952 322.91C684.174 323.919 682.16 324.438 680.115 324.415C678.071 324.391 676.069 323.826 674.315 322.776L575.633 263.914C573.914 262.89 572.489 261.437 571.5 259.698C570.511 257.958 569.99 255.991 569.989 253.99V152.062C569.997 150.035 570.538 148.045 571.559 146.292C572.58 144.54 574.043 143.087 575.803 142.079C577.563 141.072 579.557 140.545 581.585 140.551C583.612 140.558 585.603 141.098 587.356 142.118L686.038 199.098C687.78 200.106 689.229 201.553 690.241 203.293C691.253 205.034 691.792 207.009 691.806 209.022Z" fill="#A5DD73"/>
<path opacity="0.32" d="M542.719 542.923C559.734 531.593 577.039 520.677 594.241 509.657L569.803 491.815L475.173 531.325C486.607 537.32 502.051 548.547 518.302 559.98C526.365 554.191 534.449 548.423 542.719 542.923Z" fill="url(#paint3_linear)"/>
<path d="M603.524 442.794C603.383 442.209 603.123 441.66 602.759 441.181C602.091 440.368 601.295 439.67 600.402 439.114C588.39 430.989 571.747 428.776 559.052 436.695C556.158 438.514 551.837 442.629 553.553 446.516C554.545 448.769 557.564 450.092 559.755 451.002C566.74 453.769 574.037 455.672 581.484 456.667C584.172 457.122 586.901 457.577 589.61 457.825C591.483 458.005 593.372 457.712 595.103 456.971C596.833 456.23 598.35 455.066 599.513 453.586C601.332 451.188 604.372 446.33 603.524 442.794Z" fill="#754C24"/>
<path d="M553.201 444.738C553.201 444.738 564.159 454.662 583.097 453.214C602.035 451.767 603.503 442.877 603.503 442.877C603.503 442.877 598.603 505.646 596.019 506.721C593.435 507.796 583.759 512.469 579.086 512.82C574.413 513.172 559.652 507.259 559.279 505.625C558.907 503.992 553.201 444.738 553.201 444.738Z" fill="#FF8F6F"/>
<path d="M556.654 353.272C556.075 352.093 554.276 353.127 554.876 354.305C567.839 380.439 570.361 409.859 572.698 438.432C572.801 439.734 574.869 439.755 574.765 438.432C572.408 409.466 569.803 379.736 556.654 353.272Z" fill="#007F68"/>
<path d="M554.999 353.52C554.999 353.52 558.618 367.083 554.875 373.864C551.133 380.645 548.053 381.989 552.518 390.404C556.984 398.819 568.934 399.956 569.72 406.406C570.506 412.857 564.014 365.036 554.999 353.52Z" fill="#007F68"/>
<path d="M596.453 377.999C586.469 398.878 580.842 421.572 579.913 444.696C579.913 446.309 582.373 446.288 582.435 444.696C583.312 422.011 588.791 399.741 598.541 379.239C599.327 377.813 597.156 376.531 596.453 377.999Z" fill="#007F68"/>
<path d="M598.231 384.615C598.231 383.25 597.921 380.48 598.066 378.185L596.619 379.095C591.698 391.065 584.338 419.183 582.146 427.784C585.144 421.333 597.404 420.444 601.002 411.244C602.589 407.339 602.663 402.982 601.208 399.025C599.434 394.417 598.428 389.549 598.231 384.615Z" fill="#007F68"/>
<path d="M621.367 197.32L589.382 220.827L618.059 261.082" stroke="#006837" stroke-width="4.06" stroke-miterlimit="10"/>
<path d="M649.671 214.294L673.199 260.275L640.098 275.72" stroke="#006837" stroke-width="4.06" stroke-miterlimit="10"/>
<path d="M332.867 72.7324L519.273 178.65" stroke="#00A99D" stroke-width="4.06" stroke-miterlimit="10"/>
<path d="M333.55 100.437L363.715 117.576" stroke="#D4145A" stroke-width="4.06" stroke-miterlimit="10"/>
<path d="M372.667 123.366L540.403 215.576" stroke="#29ABE2" stroke-width="4.06" stroke-miterlimit="10"/>
<path d="M332.867 125.681L397.291 161.221" stroke="#F7931E" stroke-width="4.06" stroke-miterlimit="10"/>
<path d="M407.98 167.961L549.231 243.508" stroke="#00A99D" stroke-width="4.06" stroke-miterlimit="10"/>
<defs>
<linearGradient id="paint0_linear" x1="215.268" y1="478.169" x2="314.136" y2="400.989" gradientUnits="userSpaceOnUse">
<stop stop-color="white" stop-opacity="0"/>
<stop offset="0.98" stop-color="#0800BF"/>
</linearGradient>
<linearGradient id="paint1_linear" x1="16055.2" y1="22551.7" x2="21282.7" y2="14333.1" gradientUnits="userSpaceOnUse">
<stop stop-color="white" stop-opacity="0"/>
<stop offset="0.98" stop-color="#0800BF"/>
</linearGradient>
<linearGradient id="paint2_linear" x1="45325.2" y1="35938.1" x2="47819.3" y2="23974" gradientUnits="userSpaceOnUse">
<stop stop-color="white" stop-opacity="0"/>
<stop offset="0.98" stop-color="#0800BF"/>
</linearGradient>
<linearGradient id="paint3_linear" x1="30602.9" y1="17908.8" x2="32155.2" y2="15723" gradientUnits="userSpaceOnUse">
<stop stop-color="white" stop-opacity="0"/>
<stop offset="0.98" stop-color="#0800BF"/>
</linearGradient>
</defs>
</svg>
