<svg width="790" height="596" viewBox="0 0 790 596" fill="none" xmlns="http://www.w3.org/2000/svg">
<g clip-path="url(#clip0)">
<path opacity="0.18" d="M481.294 26.16C514.371 43.317 541.822 69.2719 567.518 96.6433C602.33 133.75 646.699 159.725 687.218 189.77C733.202 223.844 777.272 267.575 787.626 323.914C792.035 347.854 789.92 372.691 784.594 396.472C778.511 424.449 767.551 451.137 752.215 475.314C720.694 524.152 670.081 559.264 614.56 576.68C559.039 594.096 499.129 594.635 442.112 583.304C412.327 577.418 382.9 568.341 352.536 567.563C329.534 566.964 306.652 571.154 283.928 574.186C213.944 583.523 139.391 581.249 77.4659 547.334C38.8028 525.947 5.02744 489.439 0.538689 445.389C-4.60841 394.916 27.93 351.425 60.8874 317.031C87.7912 289.08 111.235 257.994 130.712 224.443C139.331 209.74 148.189 198.089 153.475 181.391C158.543 165.431 161.675 148.892 167.64 133.192C174.465 115.331 184.943 99.091 198.403 85.5112C220.228 63.5662 248.717 49.6012 276.607 36.0951C292.966 28.1151 309.365 20.2548 326.602 14.589C366.416 1.61939 409.239 1.10437 449.354 13.1127C460.382 16.4629 471.074 20.8308 481.294 26.16Z" fill="#7524DD"/>
<path d="M394.332 519.324C397.408 520.089 400.268 521.549 402.691 523.593C408.995 529.578 405.923 541.03 398.94 546.237C391.958 551.444 382.741 552.222 374.062 553C345.236 555.47 316.566 559.506 288.178 565.089C260.547 570.536 232.517 577.438 204.148 576.401C194.173 576.042 169.635 575.563 162.433 567.463C153.176 557.05 172.947 544.98 181.186 539.274C215.101 515.713 254.881 521.06 294.083 515.135C327.3 510.107 361.993 508.89 394.332 519.324Z" fill="url(#paint0_linear)"/>
<path d="M534.58 462.586C529.972 464.022 525.283 466.337 522.79 470.466C521.574 472.909 520.612 475.469 519.917 478.107C518.273 482.712 515.633 486.897 512.184 490.363C508.735 493.829 504.563 496.49 499.967 498.157C497.333 499.095 494.381 499.833 492.745 502.147C491.963 503.391 491.566 504.838 491.601 506.307C491.637 507.775 492.104 509.201 492.944 510.406C494.671 512.778 497.018 514.628 499.727 515.753C509.443 520.301 520.755 520.301 531.288 518.227C541.822 516.152 551.857 512.242 562.091 508.91C575.325 504.736 588.925 501.83 602.709 500.232C613.622 498.975 624.654 498.516 635.188 495.164C645.721 491.813 655.657 485.01 659.686 474.795C646.639 461.409 625.771 459.793 607.198 461.229C583.438 463.025 557.862 455.364 534.58 462.586Z" fill="url(#paint1_linear)"/>
<path d="M72.1392 443.394C67.5307 444.851 62.8425 447.145 60.3487 451.275C59.1271 453.716 58.1578 456.277 57.456 458.915C55.8222 463.526 53.1851 467.716 49.7351 471.183C46.2851 474.65 42.1082 477.308 37.506 478.965C34.8925 479.903 31.9399 480.641 30.2841 482.955C29.5125 484.203 29.1206 485.648 29.156 487.114C29.1915 488.581 29.6527 490.005 30.4836 491.214C32.2018 493.602 34.5601 495.456 37.2865 496.561C47.0022 501.11 58.3138 501.11 68.8474 499.035C79.381 496.96 89.4159 493.05 99.6502 489.718C112.884 485.544 126.485 482.638 140.268 481.04C151.161 479.783 162.213 479.324 172.747 475.992C183.281 472.661 193.216 465.818 197.246 455.604C184.198 442.217 163.331 440.601 144.757 442.038C120.977 443.773 95.4009 436.033 72.1392 443.394Z" fill="url(#paint2_linear)"/>
<path d="M264.876 416.581C252.707 418.776 240.218 421.17 229.724 427.713C226.113 429.948 222.602 433.08 222.083 437.249C221.505 441.898 225.016 446.247 229.265 448.202C233.665 449.846 238.366 450.527 243.051 450.197L297.834 450.536L338.392 450.776C343.3 450.776 348.945 450.057 353.773 450.776C362.611 452.252 370.272 456.561 379.708 457C391.858 457.578 403.968 455.324 415.838 453.01C423.259 451.574 430.86 450.057 437.344 446.127C439.957 444.551 442.571 442.137 442.371 439.065C442.096 437.224 441.185 435.537 439.798 434.297C430.561 424.761 415.419 425.539 402.471 422.606C388.706 419.474 376.277 411.534 362.332 409.22C355.931 408.382 349.466 408.142 343.02 408.502C331.509 408.781 319.878 407.245 308.527 409.02C293.923 411.474 279.42 414.147 264.876 416.581Z" fill="url(#paint3_linear)"/>
<path d="M339.19 397.629C328.975 395.315 330.97 409.819 328.277 415.185C326.596 417.935 324.465 420.383 321.973 422.427C319.465 424.493 317.827 427.427 317.384 430.646C317.321 431.248 317.447 431.855 317.744 432.382C318.238 433.021 318.946 433.461 319.739 433.619C325.57 435.316 331.831 434.694 337.215 431.883C339.73 430.681 341.818 428.739 343.2 426.317C344.315 423.718 344.84 420.904 344.736 418.078C345.035 412.033 347.709 399.504 339.19 397.629Z" fill="#FDB9A9"/>
<path d="M330.073 427.434C330.073 427.434 301.006 428.671 313.315 437.808C325.624 446.945 344.038 435.594 345.873 433.419C347.709 431.245 346.212 427.773 346.212 427.773L330.073 427.434Z" fill="#7524DD"/>
<path d="M344.616 431.424C342.023 434.576 328.357 438.826 322.332 438.387C316.307 437.948 310.861 435.135 311.439 431.225C312.018 427.314 322.711 418.237 324.726 418.257C326.741 418.277 328.317 422.926 332.367 423.883C334.167 424.186 336.014 424.022 337.732 423.407C339.451 422.793 340.983 421.748 342.182 420.372C342.55 419.867 343.08 419.506 343.684 419.35C344.289 419.193 344.928 419.251 345.494 419.514C346.321 421.422 346.673 423.503 346.521 425.577C346.368 427.651 345.714 429.658 344.616 431.424Z" fill="white"/>
<path d="M374.222 403.355C364.008 400.981 366.003 415.464 363.309 420.831C361.634 423.591 359.502 426.046 357.005 428.093C354.511 430.17 352.876 433.099 352.417 436.312C352.353 436.914 352.479 437.52 352.776 438.048C353.27 438.687 353.979 439.126 354.771 439.285C360.603 440.972 366.861 440.35 372.247 437.549C374.753 436.332 376.837 434.394 378.232 431.983C379.347 429.384 379.872 426.57 379.768 423.744C380.067 417.639 382.741 405.17 374.222 403.355Z" fill="#FDB9A9"/>
<path d="M365.185 433.04C365.185 433.04 336.118 434.257 348.427 443.414C360.736 452.572 379.13 441.18 380.905 439.105C382.681 437.03 381.244 433.439 381.244 433.439L365.185 433.04Z" fill="#7524DD"/>
<path d="M379.648 436.99C377.055 440.162 363.409 444.392 357.364 443.973C351.319 443.554 345.893 440.721 346.472 436.811C347.05 432.901 357.743 423.803 359.758 423.843C361.773 423.883 363.369 428.512 367.399 429.449C369.202 429.752 371.052 429.588 372.774 428.973C374.495 428.359 376.031 427.314 377.234 425.938C377.598 425.435 378.126 425.075 378.726 424.918C379.327 424.762 379.963 424.819 380.526 425.08C381.353 426.989 381.706 429.069 381.553 431.143C381.4 433.218 380.746 435.224 379.648 436.99Z" fill="white"/>
<path d="M347.888 271.525L361.554 415.165L381.225 412.731C389.005 377.679 387.09 272.762 387.09 272.762L347.888 271.525Z" fill="#473F47"/>
<path d="M361.554 267.635L347.888 411.275L328.078 408.901C316.826 317.969 326.083 261.271 326.083 261.271L361.554 267.635Z" fill="#473F47"/>
<path d="M327.918 215.665C327.679 213.032 326.98 210.418 326.701 207.685C326.062 202.257 326.163 196.767 327 191.366C327.928 185.625 329.661 180.044 332.148 174.788C334.422 170.219 338.512 168.284 343.14 166.01C346.996 163.918 351.178 162.494 355.509 161.8C358.577 161.523 361.669 161.698 364.686 162.319C373.963 164.074 386.192 168.862 392.616 176.284C397.384 181.77 397.943 189.65 398.082 196.932C398.282 206.96 398.076 216.988 397.464 227.017C397.464 228.473 397.304 229.929 397.184 231.386C396.327 242.378 395.429 253.789 392.297 264.423C391.319 267.754 390.302 271.106 387.19 272.902C379.928 277.111 368.816 274.897 360.975 273.7C350.581 272.223 339.888 270.687 330.671 265.72C328.747 264.884 327.189 263.382 326.282 261.49C325.484 259.236 326.462 256.782 327.16 254.488C330.272 244.213 327.858 233.421 327.858 222.947C327.858 221.052 328.098 219.116 328.098 217.221C328.078 216.623 327.918 216.144 327.918 215.665Z" fill="white"/>
<path opacity="0.1" d="M353.175 175.087C354.209 173.125 355.438 171.274 356.846 169.561C357.024 169.328 357.257 169.143 357.524 169.022C357.766 168.962 358.02 168.962 358.262 169.022L367.16 170.438C367.576 170.458 367.977 170.596 368.317 170.837C368.598 171.081 368.805 171.399 368.915 171.755C369.463 173.899 369.163 176.171 368.077 178.099C365.485 183.084 362.418 187.807 358.92 192.204C356.921 194.894 355.216 197.79 353.833 200.842C353.175 202.378 352.955 204.114 352.317 205.65C351.678 207.186 350.322 206.388 349.185 206.129L335.459 203.236L328.596 201.8C327.599 201.6 326.821 201.6 327.339 200.423C327.522 200.077 327.771 199.77 328.072 199.52C328.373 199.27 328.721 199.082 329.095 198.967C330.174 198.694 331.276 198.52 332.387 198.448C334.664 197.886 336.798 196.853 338.651 195.416C340.117 194.47 341.511 193.416 342.821 192.264C347.768 187.735 350.023 181.032 353.175 175.087Z" fill="#020202"/>
<path d="M338.232 166.329C339.163 165.071 340.408 164.08 341.843 163.456C345.095 162.339 348.327 165.072 351.679 165.85C354.192 166.409 357.324 166.089 358.821 168.204C359.264 169.104 359.495 170.094 359.495 171.097C359.495 172.1 359.264 173.09 358.821 173.99C356.005 183.007 352.538 191.808 348.447 200.324C346.811 203.735 344.676 206.787 342.94 210.059C340.945 213.67 340.527 217.481 337.714 220.712C334.901 223.944 329.734 226.219 325.564 224.563C323.478 223.645 321.708 222.132 320.477 220.214C315.27 212.693 318.901 204.673 321.774 197.132C323.848 191.825 337.195 167.486 338.232 166.329Z" fill="white"/>
<path opacity="0.1" d="M383.1 274.098C379.608 274.737 375.459 277.25 371.848 276.572C367.84 274.655 363.51 273.498 359.08 273.161C353.095 272.462 346.851 269.749 341.125 267.914C338.708 267.361 336.466 266.216 334.601 264.582C331.11 260.951 332.147 255.126 332.866 250.138C333.901 242.847 333.746 235.435 332.407 228.193C331.884 224.783 330.995 221.438 329.753 218.218C328.656 215.705 326.94 214.069 327.359 211.076C327.718 208.443 329.534 205.351 332.487 205.091C334.05 205.146 335.571 205.614 336.895 206.448C340.644 208.462 344.682 209.882 348.865 210.657C353.955 211.286 359.118 210.457 363.755 208.268C368.392 206.078 372.312 202.618 375.06 198.288C377.793 193.979 380.506 174.089 388.147 176.842C390.616 177.895 392.825 179.474 394.621 181.469C396.416 183.464 397.754 185.827 398.541 188.393C400.036 193.574 400.657 198.968 400.376 204.353C400.217 218.318 397.444 232.582 395.668 246.448C394.97 251.694 394.152 271.186 387.209 272.901C385.793 273.181 384.456 273.819 383.1 274.098Z" fill="#020202"/>
<path d="M333.564 196.373C332.288 195.578 330.834 195.113 329.333 195.019C327.832 194.925 326.331 195.205 324.966 195.835C323.622 196.51 322.488 197.54 321.686 198.813C320.885 200.085 320.446 201.553 320.417 203.057C320.548 205.105 321.238 207.078 322.412 208.762C323.047 209.869 323.911 210.828 324.946 211.575C326.583 212.553 328.5 212.954 330.392 212.712C332.103 212.651 333.776 212.193 335.28 211.376C337.514 210.119 340.407 206.528 339.669 203.715C338.403 200.719 336.279 198.165 333.564 196.373Z" fill="#FDB9A9"/>
<path d="M395.11 179.117C403.529 193.082 406.461 209.5 409.234 225.54C409.719 227.498 409.807 229.533 409.494 231.525C408.971 233.292 407.993 234.89 406.66 236.161C405.326 237.431 403.682 238.33 401.893 238.767C398.312 239.607 394.61 239.803 390.96 239.346C383.12 238.847 373.823 238.169 367.18 233.62C364.885 232.064 362.871 230.129 360.536 228.632C358.258 227.297 355.892 226.117 353.454 225.101C348.805 222.943 344.37 220.352 340.207 217.361C338.775 216.481 337.583 215.261 336.736 213.81C335.379 211.096 336.437 207.825 337.494 205.032C337.689 204.304 338.125 203.664 338.731 203.216C339.562 202.877 340.493 202.877 341.325 203.216C352.546 206.555 363.984 209.115 375.559 210.877C378.731 211.376 377.334 207.884 376.915 206.069C376.218 203.528 375.658 200.95 375.24 198.348C374.829 194.603 375.341 190.814 376.732 187.312C378.123 183.81 380.351 180.702 383.22 178.259C384.696 176.884 386.565 176.005 388.566 175.745C389.834 175.81 391.073 176.145 392.201 176.726C393.329 177.307 394.321 178.122 395.11 179.117Z" fill="white"/>
<path d="M352.536 146.439C352.235 145.05 352.021 143.644 351.898 142.229C351.22 136.244 350.641 130.02 353.574 124.873C354.788 122.709 356.556 120.908 358.696 119.654C360.837 118.401 363.273 117.74 365.753 117.74C368.234 117.74 370.67 118.401 372.811 119.654C374.951 120.908 376.719 122.709 377.933 124.873C379.645 128.097 380.387 131.749 380.068 135.386C379.743 139.006 379.075 142.586 378.073 146.079C377.115 149.79 374.681 152.064 373.285 155.476C372.808 156.944 372.586 158.482 372.626 160.024C372.827 162.328 372.827 164.644 372.626 166.947C370.352 168.441 367.752 169.365 365.045 169.64C363.776 169.62 362.518 169.404 361.315 169.002C360.635 168.867 360.034 168.474 359.639 167.905C359.46 167.406 359.419 166.869 359.519 166.349C359.519 165.85 359.639 165.371 359.639 164.872C359.918 162.384 359.878 159.87 359.519 157.391C358.71 155.455 357.376 153.783 355.669 152.563C354.014 150.896 352.919 148.756 352.536 146.439Z" fill="#FDB9A9"/>
<path opacity="0.1" d="M354.013 149.152C356.709 148.813 359.377 148.273 361.993 147.536C362.89 147.276 363.988 147.057 364.666 147.695C364.971 148.048 365.177 148.474 365.264 148.932C365.589 149.826 365.738 150.775 365.703 151.725C365.545 152.519 365.325 153.3 365.045 154.059C364.917 154.439 364.871 154.841 364.908 155.24C364.946 155.639 365.068 156.025 365.264 156.374C365.903 157.251 367.259 157.531 367.559 158.588C367.858 159.645 367.08 160.064 366.841 160.802C366.581 161.689 366.401 162.597 366.302 163.516C366.282 164.576 366.121 165.63 365.823 166.648C365.607 167.171 365.273 167.638 364.847 168.011C364.422 168.385 363.916 168.656 363.369 168.802C362.817 168.937 362.242 168.946 361.686 168.829C361.13 168.712 360.608 168.471 360.157 168.124C359 166.883 358.297 165.287 358.162 163.595L357.085 158.229C356.769 156.361 356.288 154.526 355.649 152.743C355.003 151.505 354.256 150.324 353.414 149.211L354.013 149.152Z" fill="#020202"/>
<path d="M184.178 252.094C184.178 252.094 185.415 257.101 173.545 260.852C161.675 264.602 157.286 252.094 157.286 252.094C157.286 252.094 179.789 243.336 184.178 252.094Z" fill="#2F3554"/>
<path d="M123.131 378.637L124.508 373.35L128.099 359.724C128.203 359.076 128.495 358.473 128.937 357.988C129.475 357.529 131.151 362.697 131.869 362.637C135.787 362.413 139.717 362.702 143.56 363.495C144.598 363.694 140.388 422.267 140.029 428.013C139.171 441.18 139.869 467.215 141.805 467.055C137.954 467.374 130.074 467.813 128.418 466.077C125.426 463.085 130.553 443.793 124.967 421.15C123.593 415.584 122.83 409.884 122.692 404.153C122.473 395.833 121.076 386.736 123.131 378.637Z" fill="#EFAC88"/>
<path d="M150.662 443.793C151.099 443.004 151.459 442.176 151.74 441.319C152.657 438.387 151.959 435.334 152.159 432.382C152.278 430.821 152.278 429.254 152.159 427.694C151.839 423.704 151.321 419.714 150.822 415.724C149.964 409 148.388 401.998 148.388 395.195C148.388 389.948 152.617 373.469 152.617 373.469L148.388 351.983H169.854C169.854 351.983 172.607 369.938 171.849 371.933C170.286 376.009 169.364 380.303 169.116 384.661C169.116 392.382 168.079 400.202 167.48 407.903C166.802 416.322 166.137 424.741 165.485 433.16C165.246 436.192 164.986 439.145 164.747 442.237C164.564 446.693 165.389 451.132 167.161 455.225C167.839 457.08 168.597 459.374 167.301 460.89C166.004 462.407 163.171 461.888 161.316 460.89C158.679 459.12 155.888 457.591 152.977 456.322C151.82 456.058 150.715 455.606 149.705 454.985C147.71 453.469 147.71 450.437 148.627 448.102C149.225 446.629 149.904 445.19 150.662 443.793Z" fill="#EFAC88"/>
<path d="M164.488 192.443C164.488 192.443 162.054 186.019 167.58 192.443C173.106 198.867 181.984 236.852 181.984 236.852C181.984 236.852 169.555 248.263 166.024 246.009C162.493 243.755 164.488 192.443 164.488 192.443Z" fill="#2F3554"/>
<path d="M159.161 131.855C166.124 134.728 167.819 145.042 167.321 151.565C166.702 159.725 159.859 167.885 162.213 176.084C163.749 180.285 164.467 184.741 164.328 189.211C163.889 193.66 161.136 198.209 156.807 199.186C155.772 199.32 154.76 199.588 153.795 199.984C152.559 200.874 151.603 202.1 151.041 203.515C147.01 211.674 139.907 217.902 131.291 220.832C122.692 223.445 112.518 221.43 106.433 214.847C100.349 208.263 99.3909 197.071 105.176 190.209C106.832 188.214 109.067 186.398 109.166 183.845C109.107 182.665 108.927 181.495 108.628 180.353C108.308 178.141 108.69 175.885 109.721 173.902C110.752 171.919 112.379 170.31 114.373 169.301C117.605 167.745 121.715 167.825 124.209 165.311C127.002 162.418 126.323 157.81 126.204 153.8C124.947 132.832 140.767 124.294 159.161 131.855Z" fill="#8B2F0C"/>
<path d="M113.795 307.056C112.119 323.415 115.032 340.153 117.964 356.472C118.643 360.302 119.481 364.452 122.333 367.085C124.575 368.883 127.24 370.078 130.074 370.557C148.682 374.867 168.198 372.831 185.515 364.771L181.106 324.073C179.949 313.24 178.692 302.128 174.802 291.914C174.084 290.019 162.832 271.186 165.505 269.57C160.198 272.842 154.034 272.363 147.949 273.779C140.749 275.469 133.819 278.155 127.361 281.759C124.051 283.219 121.181 285.518 119.036 288.43C116.891 291.342 115.545 294.765 115.131 298.358C114.527 301.23 114.081 304.134 113.795 307.056Z" fill="#7524DD"/>
<path d="M113.795 307.056C112.119 323.415 115.032 340.153 117.964 356.472C118.643 360.302 119.481 364.452 122.333 367.085C124.575 368.883 127.24 370.078 130.074 370.557C148.682 374.867 168.198 372.831 185.515 364.771L181.106 324.073C179.949 313.24 178.692 302.128 174.802 291.914C174.084 290.019 162.832 271.186 165.505 269.57C160.198 272.842 154.034 272.363 147.949 273.779C140.749 275.469 133.819 278.155 127.361 281.759C124.051 283.219 121.181 285.518 119.036 288.43C116.891 291.342 115.545 294.765 115.131 298.358C114.527 301.23 114.081 304.134 113.795 307.056Z" fill="url(#paint4_linear)"/>
<path d="M158.802 175.087C158.802 175.087 153.395 181.95 153.376 186.159C153.318 188.947 152.937 191.719 152.238 194.418C152.238 194.418 151.381 199.446 148.588 197.491C145.795 195.536 135.979 182.369 135.979 182.369L146.692 168.084L158.802 175.087Z" fill="#EFAC88"/>
<path d="M175.44 296.323C175.44 296.323 173.246 271.884 169.176 262.089C168.046 258.539 167.773 254.772 168.378 251.096C169.196 242.438 171.829 234.139 173.246 225.58C173.677 221.751 173.393 217.874 172.408 214.149C170.918 206.727 169.176 199.359 167.181 192.044C167.005 191.103 166.601 190.219 166.004 189.471C165.323 188.852 164.512 188.395 163.63 188.134L152.957 184.144C154.074 187.575 155.131 191.406 153.595 194.678C153.219 195.632 152.511 196.419 151.6 196.892C149.605 197.71 147.61 196.393 146.014 194.897C143.598 192.548 141.731 189.693 140.548 186.538C139.949 184.892 139.528 183.186 139.291 181.451C139.131 180.214 139.49 178.418 138.553 177.56C137.037 180.234 133.904 181.55 131.53 183.406C129.156 185.261 126.104 187.396 123.231 189.391C120.836 190.692 118.884 192.679 117.625 195.096C117.007 197.139 117.007 199.318 117.625 201.361C118.124 203.635 118.902 205.85 119.321 208.144C119.72 211.061 119.96 213.998 120.039 216.942C120.518 221.319 121.298 225.659 122.373 229.929C122.778 232.539 123.025 235.17 123.111 237.809C123.111 237.809 127.101 252.652 126.303 256.283C125.505 259.914 118.044 273.939 117.625 280.083C117.206 286.228 120.019 299.136 120.019 299.136C120.019 299.136 126.922 299.595 134.583 299.894C143.6 300.233 159.959 296.423 161.176 295.206C162.772 293.61 163.65 282.218 163.51 274.617C167.141 286.428 169.994 296.323 169.994 296.323H175.44Z" fill="#2F3554"/>
<path d="M122.333 311.265C123.83 311.704 124.328 313.041 125.446 314.717C126.941 317.047 128.32 319.451 129.575 321.919C129.747 322.091 129.843 322.324 129.843 322.567C129.843 322.81 129.747 323.043 129.575 323.215C129.428 323.354 129.238 323.438 129.037 323.455C127.759 323.915 126.383 324.032 125.047 323.794C124.534 326.989 125.021 330.264 126.443 333.17C126.782 333.869 127.141 334.806 126.583 335.365C126.323 335.564 126.011 335.682 125.685 335.704C122.832 335.888 119.99 335.192 117.545 333.709C116.126 333.085 114.829 332.214 113.715 331.136C112.201 329.338 111.092 327.235 110.463 324.971C110.463 323.531 110.603 322.095 110.882 320.682C110.882 320.023 111.56 311.425 111.76 311.425L121.017 311.066C121.463 311.068 121.906 311.135 122.333 311.265Z" fill="#FDC099"/>
<path d="M122.393 307.854L123.131 311.584L110.264 313.819V309.53L122.393 307.854Z" fill="white"/>
<path d="M122.393 258.797C122.393 258.797 132.628 234.179 131.231 225.5C129.835 216.822 123.949 196.573 119.6 196.753C115.251 196.932 113.875 202.738 113.875 208.124C113.875 213.511 105.136 262.089 104.578 266.577C104.019 271.066 109.506 312.462 109.506 312.462L124.069 309.25L122.393 258.797Z" fill="#2F3554"/>
<path d="M161.555 138.698C161.789 138.835 161.993 139.018 162.154 139.237C163.19 141.03 163.868 143.009 164.149 145.062C166.962 155.037 170.792 164.533 165.306 174.428C164.911 175.243 164.346 175.964 163.65 176.543C162.933 177.037 162.115 177.364 161.256 177.501C157.215 178.334 153.01 177.667 149.425 175.625C147.372 174.645 145.374 173.553 143.44 172.354C142.604 171.764 141.921 170.985 141.445 170.079C141.007 169.142 140.288 168.224 140.588 167.127C140.807 166.369 141.246 165.71 141.406 164.932C141.568 163.717 141.345 162.482 140.767 161.401C140.63 161.169 140.542 160.911 140.508 160.643C140.474 160.376 140.494 160.104 140.568 159.845C140.927 158.987 142.124 159.047 143.041 158.827C143.79 158.544 144.47 158.104 145.034 157.536C145.598 156.968 146.035 156.286 146.313 155.536C147.196 153.752 147.866 151.87 148.308 149.93C148.585 148.254 149.068 146.619 149.745 145.062C151.078 142.922 153.005 141.217 155.291 140.154C156.867 139.237 159.819 137.621 161.555 138.698Z" fill="#FDC099"/>
<path d="M166.004 153.202L166.902 152.423C166.902 152.423 167.161 152.982 167.48 152.922C167.764 152.845 168.038 152.738 168.298 152.603C168.298 152.603 167.799 153.321 167.46 153.381C166.99 153.441 166.514 153.441 166.044 153.381L166.004 153.202Z" fill="#8A3C1F"/>
<path d="M166.782 152.483L167.161 151.805C167.161 151.805 167.46 152.084 167.66 151.965C167.813 151.854 167.953 151.727 168.079 151.585C168.079 151.585 167.959 152.144 167.759 152.264C167.457 152.387 167.143 152.48 166.822 152.543L166.782 152.483Z" fill="#8A3C1F"/>
<path d="M210.612 217.081H173.286L141.286 257.54L176.498 256.124L210.612 217.081Z" fill="#7524DD"/>
<path d="M188.428 250.179C188.474 249.788 188.547 249.402 188.647 249.021C189.118 246.516 189.05 243.938 188.448 241.46C187.843 238.961 186.31 236.785 184.158 235.376C183.995 235.276 183.821 235.196 183.64 235.136C183.353 235.136 183.078 235.245 182.87 235.442C182.662 235.639 182.538 235.908 182.523 236.194C182.518 236.768 182.647 237.335 182.902 237.849C183.56 239.492 184.022 241.206 184.278 242.957L182.403 240.822C181.887 240.122 181.2 239.565 180.408 239.206C179.997 239.047 179.541 239.053 179.135 239.224C178.729 239.396 178.406 239.718 178.233 240.124C178.138 240.618 178.208 241.13 178.433 241.58L180.188 246.667C179.373 245.039 178.069 243.706 176.458 242.857C176.137 243.297 175.964 243.828 175.964 244.373C175.964 244.918 176.137 245.449 176.458 245.889C177.092 246.804 177.634 247.78 178.074 248.802C177.655 248.307 177.275 247.78 176.937 247.226C176.518 246.727 175.72 246.408 175.241 246.847C174.762 247.286 174.922 247.904 175.061 248.443C176.262 252.257 176.736 256.264 176.458 260.253L178.692 259.755C180.459 259.167 182.133 258.327 183.66 257.261C184.929 256.507 186.015 255.48 186.84 254.256C187.664 253.031 188.207 251.638 188.428 250.179Z" fill="#EFAC88"/>
<path d="M421.284 246.847C421.962 246.268 423.02 245.829 423.698 246.408C423.907 246.642 424.063 246.918 424.156 247.217C424.248 247.517 424.276 247.833 424.237 248.144V251.715C430.322 249.859 434.91 244.971 439.379 240.463C440.316 239.505 441.693 238.468 442.85 239.146C443.268 239.455 443.582 239.884 443.749 240.376C443.917 240.868 443.93 241.399 443.788 241.899C443.445 242.861 443.211 243.858 443.09 244.872C443.09 246.508 444.267 247.924 444.426 249.54C444.606 251.535 443.249 253.331 443.07 255.326V257.321C442.768 258.537 442.172 259.661 441.334 260.592C439.326 263.622 436.66 266.159 433.533 268.014C431.393 268.945 429.128 269.557 426.81 269.829L419.568 271.066C418.862 271.246 418.121 271.246 417.414 271.066C415.239 270.328 414.561 266.777 414.641 264.822C414.959 262.997 415.637 261.254 416.636 259.695C418.132 255.545 417.673 249.879 421.284 246.847Z" fill="#A67C52"/>
<path d="M206.981 224.862C206.502 224.104 205.625 223.386 204.807 223.725C204.538 223.887 204.307 224.105 204.129 224.362C203.95 224.62 203.827 224.913 203.769 225.221L202.672 228.613C197.405 225.041 194.473 219.017 191.56 213.371C190.941 212.174 189.944 210.797 188.627 211.096C188.151 211.277 187.743 211.6 187.457 212.021C187.172 212.443 187.023 212.942 187.031 213.451C187.058 214.466 186.985 215.482 186.812 216.483C186.333 218.039 184.817 219.056 184.139 220.473C183.38 222.308 184.139 224.463 183.72 226.458C183.58 227.096 183.301 227.715 183.201 228.453C183.121 229.703 183.361 230.953 183.899 232.084C184.904 235.579 186.691 238.799 189.126 241.5C190.893 243.018 192.868 244.274 194.991 245.231L201.555 248.562C202.163 248.923 202.845 249.141 203.55 249.201C205.844 249.201 207.54 245.969 208.059 244.074C208.298 242.249 208.197 240.395 207.759 238.607C207.4 234.119 209.495 228.912 206.981 224.862Z" fill="#A67C52"/>
<path d="M269.305 549.448C269.334 549.609 269.388 549.763 269.465 549.907C270.362 552.221 273.215 552.999 275.689 553.279C277.993 553.551 280.312 553.665 282.632 553.618C283.733 553.646 284.832 553.491 285.883 553.159C286.866 552.735 287.786 552.178 288.617 551.503L295.28 546.556C297.161 545.276 298.871 543.761 300.367 542.047C301.87 540.315 302.655 538.074 302.562 535.783C302.498 534.644 302.079 533.554 301.363 532.666C300.647 531.779 299.671 531.138 298.572 530.835C297.176 530.695 295.768 530.735 294.382 530.955C291.529 531.094 287.539 529.917 286.402 526.965C286.102 525.707 285.402 524.58 284.407 523.753C283.438 523.318 282.358 523.193 281.315 523.394C278.992 523.487 276.697 523.938 274.512 524.73C273.418 525.124 272.427 525.758 271.612 526.587C270.796 527.416 270.179 528.418 269.804 529.518C269.544 530.541 269.443 531.597 269.504 532.65C269.624 534.81 269.624 536.975 269.504 539.134C269.182 541.849 269.029 544.58 269.046 547.314C269.062 548.032 269.149 548.747 269.305 549.448Z" fill="#262836"/>
<path d="M334.063 550.286C329.574 552.341 324.956 554.101 320.237 555.553C318.345 556.37 316.225 556.49 314.252 555.892C313.466 555.5 312.776 554.938 312.232 554.249C311.687 553.559 311.301 552.758 311.1 551.902C310.679 550.214 310.505 548.474 310.582 546.735C310.582 543.843 311.779 541.608 312.237 538.855C312.656 536.461 312.996 534.047 313.335 531.653C313.814 528.222 314.252 524.79 314.691 521.339L326.661 523.912C327.918 524.172 329.115 529.02 329.853 530.037C330.424 530.787 331.152 531.402 331.986 531.84C332.82 532.277 333.74 532.527 334.681 532.571C336.676 532.671 338.811 531.733 340.866 532.072C342.189 532.398 343.369 533.147 344.226 534.206C345.083 535.265 345.571 536.576 345.614 537.937C345.596 539.298 345.3 540.64 344.744 541.882C344.189 543.124 343.385 544.24 342.382 545.159C340.357 546.978 338.045 548.447 335.539 549.508L334.063 550.286Z" fill="#262836"/>
<path d="M334.163 536.9C331.018 538.69 327.751 540.257 324.387 541.588L324.048 541.728C318.502 543.882 312.297 535.184 312.297 535.184C312.297 535.184 304.457 486.746 304.816 466.676C305.055 452.89 301.804 433.24 296.836 397.589C295.599 433.998 289.435 449.998 291.011 463.045C293.405 482.895 290.552 532.192 290.552 532.192C290.552 532.192 285.305 541.788 279.539 540.491H279.2C275.736 539.699 272.336 538.652 269.026 537.359C269.026 537.359 262.323 469.529 262.323 451.574C262.323 433.619 263.061 417.659 263.061 417.659L259.57 360.941L274.512 339.255L275.729 338.737L276.886 337.599L293.445 325.45C293.445 325.45 293.445 328.283 293.145 333.131L305.993 340.033L307.25 340.971L308.507 341.29L330.073 345.061C330.073 345.061 335.739 432.003 337.554 449.798C339.369 467.594 334.163 536.9 334.163 536.9Z" fill="#7524DD"/>
<path d="M334.163 536.9C331.018 538.69 327.751 540.257 324.387 541.588L324.048 541.728C318.502 543.882 312.297 535.184 312.297 535.184C312.297 535.184 304.457 486.746 304.816 466.676C305.055 452.89 301.804 433.24 296.836 397.589C295.599 433.998 289.435 449.998 291.011 463.045C293.405 482.895 290.552 532.192 290.552 532.192C290.552 532.192 285.305 541.788 279.539 540.491H279.2C275.736 539.699 272.336 538.652 269.026 537.359C269.026 537.359 262.323 469.529 262.323 451.574C262.323 433.619 263.061 417.659 263.061 417.659L259.57 360.941L274.512 339.255L275.729 338.737L276.886 337.599L293.445 325.45C293.445 325.45 293.445 328.283 293.145 333.131L305.993 340.033L307.25 340.971L308.507 341.29L330.073 345.061C330.073 345.061 335.739 432.003 337.554 449.798C339.369 467.594 334.163 536.9 334.163 536.9Z" fill="url(#paint5_linear)"/>
<path d="M316.287 193.76C317.644 195.116 319.679 196.513 319.12 198.308C318.821 199.266 317.804 199.825 317.125 200.503C316.151 201.487 315.383 202.656 314.865 203.94C314.348 205.225 314.092 206.6 314.113 207.984C314.196 210.69 313.811 213.39 312.976 215.964C312.508 217.256 311.611 218.348 310.434 219.056C309.257 219.764 307.872 220.046 306.512 219.854C304.936 219.416 303.36 218.059 301.844 218.697C300.686 219.196 300.327 220.692 299.729 221.69C298.869 222.976 297.664 223.994 296.253 224.629C294.843 225.264 293.282 225.49 291.749 225.281C288.696 224.839 285.753 223.831 283.071 222.308C281.922 221.867 280.93 221.097 280.218 220.094C279.755 219.132 279.642 218.038 279.899 217.002C280.457 213.83 282.652 211.216 284.427 208.483C287.719 203.431 289.694 197.636 290.173 191.625C290.492 187.436 290.173 182.827 292.866 179.655C296.517 175.246 305.335 175.286 309.863 178.518C315.07 181.85 312.118 189.431 316.287 193.76Z" fill="#A67C52"/>
<path d="M310.881 174.787C310.345 175.827 309.539 176.702 308.547 177.321C306.552 178.498 304.836 179.875 302.901 181.171C301.072 182.4 299.786 184.286 299.31 186.438C298.492 190.428 300.646 194.598 299.31 198.408C298.851 199.166 297.574 198.707 297.055 197.949C296.537 197.191 296.277 196.234 295.499 195.775C294.183 195.017 292.567 196.293 292.008 197.77C291.423 199.418 291.497 201.228 292.214 202.822C292.932 204.417 294.237 205.673 295.858 206.328C295.679 207.545 294.083 208.044 292.846 207.864C291.618 207.527 290.349 207.365 289.075 207.386C286.223 207.924 285.085 211.994 282.292 212.413C281.309 212.342 280.354 212.049 279.5 211.554C278.646 211.06 277.916 210.378 277.365 209.56L273.894 205.57C273.341 204.859 272.734 204.192 272.078 203.575C271.3 202.957 270.083 202.917 269.365 202.179C268.647 201.44 269.365 199.745 268.667 198.827C268.32 198.509 267.913 198.265 267.47 198.109C266.47 197.606 265.675 196.774 265.217 195.753C264.759 194.731 264.667 193.584 264.956 192.503C265.036 192.229 265.036 191.939 264.956 191.665C264.836 191.306 264.397 191.126 264.038 190.947C262.976 190.281 262.19 189.255 261.824 188.057C261.457 186.859 261.535 185.569 262.043 184.423C262.602 183.09 263.423 181.882 264.457 180.872C264.839 180.322 265.365 179.888 265.978 179.617C266.59 179.346 267.265 179.249 267.929 179.336L268.467 174.348C268.514 173.333 268.758 172.337 269.185 171.416C270.322 169.421 272.936 168.902 275.17 168.643L274.213 164.493C274.1 164.239 274.042 163.963 274.042 163.685C274.042 163.407 274.1 163.132 274.213 162.877C274.515 162.509 274.94 162.261 275.41 162.179C276.755 161.822 278.131 161.595 279.519 161.501C278.999 160.349 278.605 159.145 278.342 157.91C278.282 157.674 278.282 157.427 278.342 157.191C278.461 156.968 278.645 156.785 278.869 156.668C279.093 156.55 279.348 156.503 279.599 156.533C280.106 156.633 280.628 156.633 281.135 156.533C281.135 156.533 280.377 153.062 280.337 152.743C280.217 152.199 280.206 151.636 280.305 151.088C280.404 150.54 280.612 150.017 280.916 149.551C281.322 149.068 281.845 148.698 282.436 148.478C283.027 148.258 283.665 148.194 284.287 148.294C285.528 148.517 286.722 148.949 287.819 149.571C287.699 148.234 289.415 147.576 290.791 147.456C293.355 147.308 295.915 147.813 298.232 148.922C300.548 150.031 302.546 151.71 304.038 153.8C304.273 154.173 304.554 154.515 304.876 154.817C305.488 155.218 306.162 155.515 306.871 155.695C307.948 156.174 308.906 156.886 309.675 157.78C310.444 158.673 311.006 159.726 311.32 160.862C311.9 163.128 312.135 165.469 312.018 167.805C312.082 169.594 311.914 171.385 311.519 173.131C311.368 173.705 311.154 174.26 310.881 174.787Z" fill="#2F3554"/>
<path d="M291.948 217.959C295.117 219.294 298.196 220.834 301.165 222.568C302.081 223.053 302.878 223.734 303.499 224.563C303.822 225.023 304.021 225.558 304.077 226.117C304.133 226.676 304.044 227.24 303.819 227.755C302.981 229.191 301.105 228.652 299.649 228.154C292.926 225.48 285.684 225.241 278.781 225.261C278.306 225.331 277.82 225.269 277.377 225.083C276.934 224.897 276.55 224.592 276.268 224.204C276.099 223.741 276.037 223.246 276.085 222.755C276.134 222.265 276.291 221.792 276.547 221.371C280.198 214.129 286.063 215.286 291.948 217.959Z" fill="white"/>
<path d="M422.341 274.119C420.969 277.547 418.935 280.672 416.356 283.316C413.903 286.089 411.349 288.762 408.696 291.296C402.448 297.361 395.846 303.05 388.925 308.333C383.997 312.143 378.731 315.894 372.586 317.091C370.141 317.67 367.579 317.511 365.225 316.632C363.276 315.634 361.53 314.281 360.077 312.642C358.302 310.886 337.953 287.465 337.614 287.465C336.464 288.083 335.578 289.096 335.12 290.318C332.171 296.396 330.352 302.96 329.753 309.689C329.514 312.704 329.514 315.732 329.753 318.747C330.551 328.981 334.142 339.535 330.591 349.19C329.899 351.243 328.73 353.103 327.18 354.617C325.679 355.914 323.956 356.928 322.093 357.609C318.817 358.966 315.396 359.943 311.898 360.522C309.921 360.881 307.921 361.101 305.913 361.18C298.472 361.46 291.05 360.003 283.609 360.382C277.265 360.702 271.001 362.377 264.657 362.118C263.488 362.209 262.314 362.042 261.218 361.628C260.121 361.215 259.129 360.564 258.313 359.724C257.595 358.621 257.15 357.363 257.016 356.053C254.541 342.493 253.266 328.741 253.205 314.956C253.205 308.592 252.168 285.33 250.033 281.041C249.774 280.523 249.495 280.263 249.215 280.343C242.113 282.338 226.871 286.328 219.649 287.605C218.605 287.857 217.522 287.911 216.457 287.764C215.361 287.484 214.34 286.966 213.465 286.248C204.527 279.685 199.5 269.909 196.328 259.615C195.709 257.62 195.151 255.625 194.632 253.63C194.361 253.098 194.197 252.519 194.15 251.923C194.103 251.328 194.175 250.73 194.36 250.163C194.546 249.595 194.841 249.07 195.23 248.618C195.619 248.165 196.094 247.794 196.627 247.525C196.748 247.454 196.874 247.393 197.006 247.346L210.393 238.727L220.368 251.455C222.363 253.929 224.637 256.602 227.809 256.962C232.158 257.4 235.43 253.45 238.103 250.079C246.77 239.191 257.884 230.503 270.542 224.722C272.398 223.83 274.354 223.16 276.367 222.727L276.866 222.608C277.154 222.527 277.447 222.467 277.744 222.428C280.346 222.191 282.968 222.346 285.524 222.887C302.513 225.755 319.319 229.612 335.858 234.438C337.837 234.733 339.719 235.49 341.352 236.648C342.984 237.805 344.321 239.331 345.255 241.101C349.903 248.104 354.432 255.186 359.1 262.188C363.09 268.173 367.08 275.754 373.065 280.143C386.008 274.898 398.225 268.013 409.414 259.655C410.99 258.478 412.985 257.201 414.8 257.979C415.381 258.264 415.902 258.657 416.336 259.136C420.626 263.425 424.496 267.615 422.341 274.119Z" fill="white"/>
<path d="M519.159 227.216C517.384 228.729 515.246 229.754 512.954 230.189C510.859 230.273 508.77 229.905 506.83 229.111L477.144 219.136C474.906 220.881 473.41 223.407 472.959 226.209C472.507 229.011 473.133 231.879 474.71 234.239C477.224 237.73 481.553 239.386 485.603 240.842L505.952 248.164C509.95 249.815 514.161 250.896 518.46 251.376C524.445 251.775 530.291 249.859 535.977 247.964C542.061 245.969 548.725 243.435 551.637 237.71C554.55 231.984 552.435 224.443 553.293 217.76C553.872 213.411 555.787 209.241 555.707 204.852C555.607 201.102 552.615 195.456 548.146 196.234C544.296 196.912 541.722 203.615 539.687 206.428C533.96 214.377 527.035 221.389 519.159 227.216Z" fill="white"/>
<path d="M473.433 217.52C473.104 216.729 472.63 216.005 472.037 215.386C471.731 215.083 471.345 214.875 470.923 214.786C470.502 214.698 470.065 214.733 469.663 214.887C469.272 215.129 468.958 215.477 468.757 215.89C468.556 216.303 468.476 216.764 468.526 217.221C468.567 217.535 468.497 217.853 468.326 218.119C468.196 218.215 468.043 218.276 467.883 218.297C467.722 218.318 467.559 218.298 467.408 218.239C464.037 217.58 460.625 217.081 457.194 216.742C456.909 216.702 456.621 216.702 456.336 216.742C455.777 216.938 455.314 217.341 455.043 217.868C454.772 218.395 454.714 219.006 454.88 219.575C455.254 220.704 455.814 221.762 456.536 222.707C458.271 225.56 458.93 229.331 461.723 231.186C463.425 232.168 465.396 232.58 467.349 232.363C469.344 232.263 471.239 231.904 473.194 231.984C474.495 232.266 475.853 232.119 477.064 231.565C477.513 231.226 477.87 230.78 478.103 230.268C478.337 229.756 478.439 229.194 478.401 228.633C478.2 226.868 477.562 225.181 476.546 223.725C475.468 221.69 474.431 219.615 473.433 217.52Z" fill="#FDB9A9"/>
<path d="M556.226 441.02C544.854 438.447 547.089 454.586 544.096 460.571C542.206 463.596 539.834 466.291 537.074 468.551C534.5 471.065 532.086 474.137 531.947 477.708C531.867 478.399 532.007 479.097 532.346 479.703C532.922 480.397 533.717 480.876 534.6 481.06C541.105 482.934 548.082 482.219 554.071 479.065C556.876 477.722 559.207 475.558 560.754 472.86C561.998 469.966 562.584 466.832 562.47 463.683C562.73 457.06 565.702 443.135 556.226 441.02Z" fill="#FDB9A9"/>
<path d="M546.171 474.217C546.171 474.217 513.812 475.593 527.518 485.768C541.224 495.943 561.672 483.274 563.667 480.96C565.662 478.646 564.046 474.676 564.046 474.676L546.171 474.217Z" fill="#7524DD"/>
<path d="M562.271 478.686C559.378 482.197 544.176 486.925 537.453 486.446C530.73 485.968 524.685 482.815 525.343 478.466C526.002 474.117 537.892 464.003 540.126 464.022C542.361 464.042 544.116 469.229 548.625 470.307C550.639 470.63 552.703 470.433 554.62 469.735C556.537 469.037 558.243 467.86 559.578 466.317C559.985 465.758 560.573 465.357 561.242 465.182C561.911 465.007 562.62 465.07 563.249 465.359C564.805 467.653 565.164 475.175 562.271 478.686Z" fill="white"/>
<path d="M595.228 447.384C583.857 444.751 586.091 460.87 583.099 466.855C581.228 469.924 578.854 472.655 576.076 474.935C573.503 477.449 571.109 480.521 570.969 484.092C570.881 484.781 571.013 485.479 571.348 486.087C571.922 486.794 572.728 487.275 573.622 487.444C580.121 489.308 587.089 488.594 593.074 485.449C595.879 484.106 598.21 481.942 599.757 479.244C601.001 476.35 601.587 473.216 601.473 470.067C601.732 463.344 604.705 449.379 595.228 447.384Z" fill="#FDB9A9"/>
<path d="M585.173 480.442C585.173 480.442 552.814 481.798 566.52 491.973C580.226 502.147 600.694 489.519 602.67 487.185C604.645 484.85 603.049 480.88 603.049 480.88L585.173 480.442Z" fill="#7524DD"/>
<path d="M601.273 484.83C598.38 488.382 583.178 493.09 576.455 492.611C569.732 492.132 563.687 489 564.346 484.631C565.004 480.262 576.894 470.147 579.129 470.167C581.363 470.187 583.119 475.374 587.627 476.432C589.642 476.755 591.705 476.558 593.622 475.86C595.539 475.162 597.245 473.985 598.58 472.442C598.987 471.882 599.575 471.481 600.244 471.307C600.913 471.132 601.622 471.195 602.251 471.484C603.807 473.858 604.166 481.299 601.273 484.83Z" fill="white"/>
<path d="M565.922 300.632L581.124 460.611L603.069 457.898C611.727 418.876 609.612 302.068 609.612 302.068L565.922 300.632Z" fill="#473F47"/>
<path d="M581.123 296.303L565.922 456.282L543.977 453.569C531.448 352.342 541.762 289.32 541.762 289.32L581.123 296.303Z" fill="#473F47"/>
<path d="M543.677 238.448C543.418 235.515 542.64 232.603 542.321 229.61C541.605 223.571 541.72 217.463 542.66 211.456C543.691 205.059 545.619 198.84 548.386 192.982C550.919 187.915 555.488 185.76 560.615 183.226C564.912 180.895 569.573 179.31 574.4 178.538C577.814 178.224 581.256 178.413 584.615 179.097C594.929 181.092 608.555 186.398 615.597 194.538C620.904 200.663 621.582 209.421 621.702 217.52C621.928 228.706 621.695 239.878 621.004 251.036C621.004 252.652 620.804 254.268 620.684 255.884C619.727 268.134 618.689 280.842 615.238 292.672C614.141 296.383 612.984 300.113 609.552 302.108C601.572 306.817 589.104 304.223 580.385 303.006C568.794 301.35 556.904 299.635 546.63 294.029C544.495 293.087 542.763 291.419 541.742 289.32C540.845 286.807 541.942 284.074 542.72 281.52C546.191 270.089 543.498 258.079 543.498 246.408C543.498 244.293 543.777 242.139 543.777 240.024C543.757 239.505 543.677 238.967 543.677 238.448Z" fill="white"/>
<path opacity="0.1" d="M576.076 292.153C575.998 290.929 576.297 289.71 576.934 288.662C578.251 287.046 580.765 287.385 582.78 287.884L595.807 291.116C600.735 292.333 608.296 297.101 609.572 302.068C614.58 298.557 615.877 292.652 616.814 286.607C617.752 280.562 617.792 268.772 618.809 262.667C612.439 267.251 604.848 269.835 597.004 270.089C589.602 270.288 580.306 270.089 577.612 262.109C574.52 252.772 573.443 242.977 571.388 233.401C571.393 233.179 571.348 232.96 571.256 232.758C571.164 232.557 571.027 232.379 570.856 232.239C570.685 232.099 570.484 231.999 570.268 231.948C570.053 231.897 569.828 231.896 569.612 231.944L541.483 232.243C541.044 232.223 540.607 232.305 540.206 232.483C539.388 232.982 539.388 234.159 539.528 235.096C540.574 241.453 543.763 247.261 548.565 251.555C550.859 253.55 552.356 254.867 552.795 257.839C553.333 261.351 553.194 265.081 553.553 268.652C554.168 276.157 555.813 283.541 558.44 290.597C562.47 300.632 575.318 308.472 576.076 292.153Z" fill="#020202"/>
<path d="M568.395 300.273H526.521L521.314 235.156H563.208L568.395 300.273Z" fill="#7524DD"/>
<path d="M565.961 162.478C565.983 159.404 566.176 156.334 566.54 153.281C566.819 150.628 567.238 147.955 567.757 145.301C567.784 144.532 567.976 143.778 568.32 143.089C568.664 142.401 569.153 141.794 569.752 141.311C573.86 138.776 578.611 137.474 583.438 137.561C586.321 137.107 589.267 137.817 591.627 139.534C593.988 141.251 595.57 143.835 596.026 146.718C596.122 147.285 596.169 147.859 596.166 148.433C596.884 155.157 595.148 161.86 594.171 168.543C593.41 173.72 593.136 178.956 593.353 184.184C590.824 185.865 587.918 186.893 584.894 187.176C583.482 187.175 582.079 186.939 580.744 186.478C580.37 186.408 580.013 186.265 579.694 186.056C579.376 185.847 579.102 185.577 578.889 185.261C578.684 184.707 578.635 184.106 578.749 183.526C578.826 182.983 578.872 182.437 578.889 181.89C579.108 178.832 579.048 175.76 578.709 172.713C578.719 172.584 578.7 172.456 578.656 172.335C578.611 172.215 578.541 172.105 578.45 172.014C578.242 171.955 578.02 171.955 577.812 172.014H576.954C575.433 172.134 573.906 172.134 572.385 172.014C570.564 171.815 568.874 170.974 567.617 169.64C566.174 167.551 565.581 164.989 565.961 162.478Z" fill="#FDB9A9"/>
<path d="M572.166 142.768C571.106 143.207 569.915 143.207 568.854 142.768C567.742 142.173 566.821 141.273 566.201 140.174C564.956 138.3 564.5 136.011 564.933 133.803C565.367 131.595 566.654 129.648 568.515 128.384C569.949 127.374 571.569 126.66 573.282 126.283C574.995 125.906 576.765 125.875 578.49 126.189C579.398 125.611 580.418 125.23 581.483 125.072C585.599 123.819 589.952 123.552 594.191 124.294C596.595 124.993 598.853 126.121 600.854 127.626C602.794 128.907 604.445 130.578 605.702 132.533C606.916 135.041 607.679 137.742 607.956 140.513C608.606 143.477 608.96 146.497 609.014 149.531C609.008 150.855 608.758 152.167 608.275 153.401C607.675 154.764 606.814 155.998 605.742 157.032C604.168 158.612 602.374 159.956 600.415 161.022C599.059 161.78 597.483 162.558 597.024 164.054C596.887 164.751 596.82 165.459 596.824 166.169C596.745 167.213 596.324 168.201 595.627 168.982C595.148 169.501 594.33 170.758 593.632 170.977C592.934 171.197 592.335 170.319 592.136 169.601C591.282 166.576 591.493 163.35 592.734 160.463C593.614 159.056 594.128 157.451 594.231 155.795C594.071 154.179 591.857 152.882 590.799 153.8C589.742 154.718 589.542 157.112 588.226 156.653C589.722 151.985 587.787 146.119 583.298 144.284C580.899 143.56 578.402 143.21 575.897 143.247C574.701 143.004 573.486 142.871 572.266 142.848L572.166 142.768Z" fill="#DD8049"/>
<path d="M576.994 171.895C580.54 171.224 584.009 170.195 587.348 168.822C587.647 179.615 578.869 181.85 578.869 181.85C579.089 178.792 579.028 175.72 578.69 172.673C578.699 172.415 578.605 172.164 578.43 171.974C578.222 171.915 578 171.915 577.792 171.974H576.994V171.895Z" fill="#DE9F93"/>
<path d="M628.864 232.902L633.852 254.727C634.368 256.542 634.59 258.428 634.51 260.313C634.151 263.844 631.737 266.757 629.423 269.43C626.576 273.202 623.001 276.364 618.909 278.727C616.071 279.981 613.056 280.788 609.971 281.121C601.821 282.357 593.571 282.818 585.333 282.498C584.681 282.513 584.034 282.384 583.438 282.119C582.844 281.737 582.351 281.217 582.002 280.602C579.119 276.25 576.641 271.642 574.6 266.837C581.2 262.392 588.448 258.993 596.086 256.762C597.627 256.475 599.065 255.787 600.256 254.767C601.032 253.796 601.547 252.642 601.752 251.416C605.004 237.451 597.503 221.89 603.508 208.862C606.919 201.441 614.201 193.481 619.468 203.396C624.435 212.433 626.59 222.967 628.864 232.902Z" fill="white"/>
<path d="M568.874 266.996C567.975 266.319 567.021 265.719 566.021 265.201C565.515 264.948 564.953 264.828 564.387 264.852C563.822 264.877 563.272 265.045 562.79 265.341C562.351 265.66 562.012 266.179 561.473 266.358C561.118 266.438 560.75 266.438 560.396 266.358L553.732 265.68C553.206 265.549 552.656 265.543 552.126 265.66C551.597 265.778 551.102 266.017 550.68 266.358C549.822 267.336 550.341 268.872 550.919 270.049C552.629 273.519 554.534 276.889 556.625 280.143C557.005 280.809 557.483 281.414 558.041 281.939C558.809 282.518 559.694 282.919 560.635 283.116C564.069 283.91 567.654 283.759 571.009 282.677C574.341 281.584 577.449 279.902 580.186 277.71C580.578 277.42 580.922 277.07 581.203 276.672C581.479 276.182 581.642 275.637 581.682 275.076C582.001 272.503 581.183 268.353 577.832 268.533C574.758 269.074 571.592 268.531 568.874 266.996Z" fill="#FDB9A9"/>
<path d="M148.528 448.681C148.665 448.459 148.867 448.285 149.106 448.182C149.665 448.003 150.184 448.501 150.563 448.94C154.014 452.93 159.181 454.925 164.129 456.721C164.428 456.82 164.807 456.92 165.046 456.721C165.286 456.521 165.286 456.302 165.385 456.102C165.568 455.855 165.831 455.678 166.129 455.602C166.427 455.525 166.742 455.554 167.021 455.683C167.564 455.974 168.056 456.351 168.478 456.801C170.473 458.636 173.326 459.374 175.52 461.01C176.104 461.37 176.547 461.919 176.777 462.566C176.852 462.922 176.837 463.291 176.732 463.64C176.628 463.988 176.437 464.305 176.178 464.561C175.634 465.101 174.938 465.462 174.183 465.598C172.812 465.881 171.403 465.935 170.014 465.758C163.111 465.239 156.235 464.508 149.386 463.564C148.851 463.526 148.329 463.384 147.849 463.145C147.322 462.719 146.911 462.166 146.656 461.538C146.401 460.909 146.311 460.227 146.393 459.554C146.47 457.772 146.677 455.998 147.012 454.247C146.969 452.284 147.496 450.351 148.528 448.681Z" fill="#262836"/>
<path d="M129.017 461.07C129.808 461.53 130.683 461.828 131.59 461.948C133.157 462.336 134.787 462.397 136.378 462.127C137.17 461.98 137.903 461.608 138.49 461.056C139.077 460.505 139.494 459.796 139.69 459.015C139.69 458.536 140.049 457.858 140.468 458.077C140.561 458.144 140.637 458.234 140.687 458.337C141.789 460.473 142.377 462.836 142.403 465.239C142.627 466.522 142.517 467.841 142.084 469.07C141.734 469.746 141.234 470.333 140.622 470.786C140.01 471.239 139.302 471.546 138.553 471.683C137.07 471.962 135.547 471.962 134.064 471.683C132.787 471.484 131.53 471.244 130.293 470.925C129.741 470.847 129.219 470.627 128.777 470.287C128.405 469.93 128.118 469.494 127.939 469.01C126.921 466.635 126.543 464.035 126.842 461.469C126.896 460.924 126.99 460.384 127.121 459.853C127.121 459.614 127.281 458.556 127.62 458.676C127.959 458.796 127.88 458.935 127.88 459.175C127.886 459.427 127.933 459.676 128.019 459.913C128.232 460.387 128.579 460.789 129.017 461.07Z" fill="#262836"/>
<path d="M348.945 119.666C348.612 118.174 348.861 116.61 349.644 115.297C350.295 114.539 351.145 113.98 352.097 113.681C353.09 113.305 354.12 113.038 355.17 112.883C355.693 112.836 356.201 112.687 356.666 112.444C357.042 112.124 357.366 111.747 357.624 111.327C358.398 110.471 359.364 109.81 360.442 109.398C361.52 108.985 362.68 108.833 363.828 108.953C366.122 108.953 368.377 109.631 370.671 109.731C372.965 109.83 375.738 109.411 377.813 110.688C379.4 111.876 380.488 113.611 380.865 115.556C381.671 115.442 382.489 115.635 383.16 116.095C384.417 117.252 383.16 119.606 384.257 120.982C384.776 121.641 385.693 121.92 386.252 122.618C386.609 123.284 386.715 124.056 386.551 124.793C386.498 125.605 386.385 126.412 386.212 127.207C385.653 129.401 384.217 131.197 383.539 133.411C383.2 134.568 383.12 135.785 382.84 136.942C382.06 139.505 380.808 141.901 379.15 144.005C380.302 138.759 380.431 133.339 379.529 128.045C379.547 127.801 379.489 127.557 379.364 127.347C379.24 127.136 379.053 126.969 378.831 126.868C378.512 126.792 378.176 126.842 377.893 127.007C372.582 129.106 366.715 129.338 361.255 127.666C359.702 126.975 357.997 126.7 356.307 126.868C355.627 127.071 354.961 127.317 354.312 127.606C353.631 127.865 352.878 127.865 352.197 127.606C352.057 127.899 351.982 128.219 351.978 128.543C350.681 128.244 350.761 126.369 350.402 125.331C349.737 123.494 349.249 121.596 348.945 119.666Z" fill="#2F3554"/>
<path d="M383.399 138.678C383.535 138.882 383.623 139.114 383.658 139.356C383.933 140.727 383.684 142.151 382.96 143.346C382.257 144.557 381.208 145.529 379.948 146.139C379.622 146.329 379.258 146.445 378.882 146.479C378.507 146.514 378.128 146.466 377.773 146.339C377.427 146.102 377.14 145.787 376.936 145.42C376.732 145.053 376.615 144.644 376.596 144.224C376.406 143.374 376.404 142.492 376.59 141.641C376.776 140.79 377.146 139.99 377.673 139.297C378.127 138.84 378.668 138.48 379.265 138.24C379.862 138 380.501 137.884 381.145 137.9C381.554 137.858 381.968 137.906 382.358 138.04C382.747 138.175 383.102 138.392 383.399 138.678Z" fill="#FDB9A9"/>
<path d="M363.569 157.63C363.668 158.448 363.03 159.167 362.95 159.985C362.87 160.802 362.95 161.78 362.95 162.678C362.909 163.812 362.534 164.908 361.873 165.83C361.08 166.63 360.077 167.19 358.98 167.446C356.734 168.286 354.356 168.718 351.958 168.723C350.966 168.666 349.979 168.54 349.005 168.344C347.429 168.084 343.339 168.224 343.02 166.069C343.117 164.887 343.443 163.736 343.978 162.678C344.157 162.099 344.317 161.521 344.477 160.942C344.636 160.364 344.856 159.506 345.015 158.788C345.773 155.356 346.292 151.526 349.005 149.192C349.684 148.573 350.821 148.134 351.439 148.813C352.058 149.491 351.838 150.468 352.556 150.648C352.808 150.669 353.062 150.628 353.295 150.528C355.963 149.315 358.888 148.774 361.813 148.952C362.362 148.981 362.895 149.148 363.362 149.438C363.829 149.727 364.216 150.13 364.486 150.608C365.264 152.603 362.711 154.598 363.329 156.593C363.449 156.928 363.529 157.277 363.569 157.63Z" fill="#FDB9A9"/>
<path d="M357.664 234.318C357.129 233.78 356.541 233.299 355.908 232.882C356.307 240.283 357.524 248.024 362.053 253.889C363.232 255.233 364.332 256.645 365.344 258.119C367.339 261.47 367.499 265.819 370.052 268.772C372.295 270.923 375.156 272.319 378.232 272.762C380.914 273.697 383.85 273.583 386.451 272.443C388.52 270.89 390.049 268.727 390.82 266.258C392.556 262.129 395.748 256.163 393.115 251.695C391.239 248.523 385.334 246.009 381.743 246.009C376.812 244.755 371.995 243.094 367.339 241.041C365.011 240.242 362.828 239.069 360.876 237.57C359.718 236.593 358.761 235.376 357.664 234.318Z" fill="white"/>
<path opacity="0.1" d="M251.889 264.882C250.494 269.399 249.893 274.124 250.113 278.847C250.12 279.564 250.047 280.28 249.894 280.981C249.634 280.463 249.355 280.203 249.076 280.283C241.973 282.278 226.732 286.268 219.51 287.545C218.465 287.797 217.382 287.851 216.318 287.704C215.221 287.424 214.2 286.906 213.325 286.188C204.388 279.625 199.36 269.849 196.188 259.555C196.412 257.772 196.806 256.015 197.365 254.308C201.615 256.602 203.829 261.311 206.482 265.36C209.039 269.298 212.188 272.818 215.819 275.794C216.54 276.462 217.398 276.966 218.333 277.271C219.439 277.484 220.58 277.436 221.664 277.131C232.517 275.076 244.008 272.602 251.889 264.882Z" fill="#020202"/>
<path opacity="0.1" d="M408.696 291.335C402.448 297.4 395.846 303.089 388.925 308.373C383.998 312.183 378.731 315.934 372.586 317.131C370.141 317.71 367.579 317.55 365.225 316.672C363.276 315.674 361.53 314.32 360.078 312.682C358.302 310.926 337.953 287.505 337.614 287.505C336.464 288.122 335.578 289.136 335.12 290.358C332.171 296.436 330.352 303 329.754 309.729C329.514 312.743 329.514 315.772 329.754 318.786C330.552 329.021 334.143 339.574 330.591 349.23C329.899 351.283 328.73 353.143 327.18 354.657C325.673 355.935 323.95 356.934 322.093 357.609C318.083 359.202 313.987 360.567 309.823 361.699C307.806 362.303 305.675 362.432 303.599 362.078C302.402 361.839 299.39 359.704 298.552 359.804C301.597 359.364 304.46 358.084 306.818 356.107C309.176 354.13 310.935 351.534 311.898 348.612C313.315 344.003 312.616 339.056 312.636 334.228C312.811 328.627 313.479 323.053 314.631 317.569L318.901 294.208C320.337 286.228 323.25 274.896 331.549 271.305C333.205 270.587 335.02 271.764 336.457 272.881C346.073 280.423 355.868 288.143 362.771 298.258C364.766 301.071 366.581 304.243 369.733 305.52C372.885 306.796 377.015 305.659 380.427 304.283C385.515 302.229 390.466 299.85 395.249 297.161C398.84 295.166 403.588 290.637 408.057 291.176C408.275 291.208 408.489 291.261 408.696 291.335Z" fill="#020202"/>
</g>
<defs>
<linearGradient id="paint0_linear" x1="283.071" y1="420.392" x2="283.071" y2="597.887" gradientUnits="userSpaceOnUse">
<stop offset="0.01"/>
<stop offset="0.08" stop-opacity="0.69"/>
<stop offset="0.21" stop-opacity="0.32"/>
<stop offset="1" stop-opacity="0"/>
</linearGradient>
<linearGradient id="paint1_linear" x1="49914.4" y1="6376.47" x2="50123" y2="1641.41" gradientUnits="userSpaceOnUse">
<stop offset="0.01"/>
<stop offset="0.08" stop-opacity="0.69"/>
<stop offset="0.21" stop-opacity="0.32"/>
<stop offset="1" stop-opacity="0"/>
</linearGradient>
<linearGradient id="paint2_linear" x1="10489.5" y1="6945.68" x2="10698.7" y2="2204.71" gradientUnits="userSpaceOnUse">
<stop offset="0.01"/>
<stop offset="0.08" stop-opacity="0.69"/>
<stop offset="0.21" stop-opacity="0.32"/>
<stop offset="1" stop-opacity="0"/>
</linearGradient>
<linearGradient id="paint3_linear" x1="-346093" y1="-7894.18" x2="-346231" y2="449.223" gradientUnits="userSpaceOnUse">
<stop offset="0.01"/>
<stop offset="0.08" stop-opacity="0.69"/>
<stop offset="0.21" stop-opacity="0.32"/>
<stop offset="1" stop-opacity="0"/>
</linearGradient>
<linearGradient id="paint4_linear" x1="3855.32" y1="14667.4" x2="7565.06" y2="14852.8" gradientUnits="userSpaceOnUse">
<stop offset="0.01"/>
<stop offset="0.08" stop-opacity="0.69"/>
<stop offset="0.21" stop-opacity="0.32"/>
<stop offset="1" stop-opacity="0"/>
</linearGradient>
<linearGradient id="paint5_linear" x1="9667.74" y1="30437.9" x2="27341.7" y2="21485.8" gradientUnits="userSpaceOnUse">
<stop offset="0.01"/>
<stop offset="0.08" stop-opacity="0.69"/>
<stop offset="0.21" stop-opacity="0.32"/>
<stop offset="1" stop-opacity="0"/>
</linearGradient>
<clipPath id="clip0">
<rect width="790" height="595.419" fill="white"/>
</clipPath>
</defs>
</svg>
