<svg width="790" height="596" viewBox="0 0 790 596" fill="none" xmlns="http://www.w3.org/2000/svg">
<path opacity="0.45" d="M395 493.689C572.958 493.689 717.221 483.529 717.221 470.996C717.221 458.463 572.958 448.303 395 448.303C217.042 448.303 72.7787 458.463 72.7787 470.996C72.7787 483.529 217.042 493.689 395 493.689Z" fill="#E6E6E6"/>
<path d="M606.878 137.162L571.446 279.362L519.208 266.347C517.697 264.418 516.851 262.051 516.798 259.602C516.744 257.152 517.486 254.751 518.911 252.759C521.427 251.372 523.631 249.484 525.387 247.211C527.143 244.938 528.415 242.33 529.122 239.546C530.336 233.833 529.287 227.872 526.195 222.917C523.103 217.962 518.21 214.4 512.545 212.979C506.879 211.559 500.884 212.392 495.821 215.303C490.757 218.213 487.02 222.975 485.396 228.585C484.716 231.376 484.613 234.278 485.096 237.11C485.578 239.943 486.634 242.647 488.2 245.056C488.532 247.484 488.063 249.954 486.866 252.092C485.669 254.23 483.808 255.92 481.564 256.906L429.345 243.871L442.518 191.06C441.427 189.02 439.741 187.361 437.685 186.303C435.628 185.244 433.298 184.837 431.004 185.135C428.598 186.708 425.895 187.77 423.062 188.256C420.228 188.742 417.325 188.641 414.533 187.959C408.963 186.306 404.246 182.568 401.365 177.523C398.483 172.479 397.659 166.517 399.065 160.88C400.47 155.243 403.997 150.366 408.909 147.264C413.822 144.163 419.741 143.077 425.435 144.232C428.218 144.94 430.827 146.211 433.1 147.968C435.373 149.724 437.261 151.928 438.647 154.443C440.531 155.79 442.782 156.529 445.098 156.561C447.413 156.593 449.683 155.916 451.603 154.621L464.777 101.809L606.878 137.162Z" fill="#CCCCCC"/>
<path d="M621.987 147.491C621.987 147.491 601.486 175.378 622.283 183.851C643.08 192.323 644.857 161.434 644.857 161.434L635.476 140.717L621.987 147.491Z" fill="#FFD200"/>
<path d="M629.176 167.518L655.443 168.367C655.443 168.367 734.285 188.67 690.104 279.935C683.093 294.392 683.686 311.396 683.291 327.335L683.192 331.482H613.909L610.275 316.571C606.119 300.022 598.566 284.519 588.096 271.047C574.725 253.47 565.245 218.571 629.176 167.518Z" fill="#BF59C0"/>
<path d="M616.713 128.748C616.941 134.577 617.951 140.35 619.715 145.911C619.968 146.557 620.346 147.148 620.828 147.648C621.31 148.148 621.886 148.549 622.522 148.826C623.159 149.103 623.844 149.251 624.539 149.263C625.233 149.274 625.923 149.149 626.569 148.893C628.695 148.18 630.571 146.869 631.972 145.118C633.373 143.367 634.24 141.249 634.469 139.018L636.444 129.538C636.639 127.599 636.23 125.646 635.272 123.949C634.313 122.251 632.853 120.892 631.091 120.058C624.732 116.621 616.2 122.369 616.713 128.748Z" fill="#F4A28C"/>
<path d="M636.128 131.316L645.687 164.338L627.122 168.307L627.615 142.672L636.128 131.316Z" fill="#F4A28C"/>
<path opacity="0.31" d="M627.28 148.281C629.542 147.396 631.497 145.873 632.909 143.896C632.909 143.896 633.422 150.157 627.339 157.168L627.28 148.281Z" fill="#CE8172"/>
<path d="M614.225 113.363C613.02 114.479 612.106 115.873 611.563 117.423C611.02 118.974 610.865 120.633 611.11 122.257C611.355 123.881 611.994 125.421 612.971 126.742C613.948 128.062 615.233 129.124 616.714 129.834C619.157 131.06 621.764 131.924 624.456 132.402C635.733 134.574 630.163 184.246 653.942 177.254C677.721 170.263 670.078 159.953 659.295 150.71C648.511 141.467 643.988 124.245 639.9 115.575C636.859 109.275 621.513 107.003 614.225 113.363Z" fill="#FFD200"/>
<path d="M674.186 354.372L677.484 463.096L670.473 465.229L646.812 362.726L674.186 354.372Z" fill="#F4A28C"/>
<path d="M677.287 461.496C677.287 461.496 681.632 466.473 686.826 465.979C692.02 465.486 693.166 472.813 684.732 472.457C682.11 472.355 679.501 472.038 676.931 471.509C674.557 471.074 672.11 471.278 669.841 472.102C669.398 472.223 668.928 472.206 668.494 472.054C668.061 471.903 667.683 471.623 667.412 471.253C664.884 468.567 670.433 461.832 670.433 461.832L677.287 461.496Z" fill="#BF59C0"/>
<path d="M619.577 354.53L594.514 460.39L600.933 463.886L644.699 368.217L619.577 354.53Z" fill="#F4A28C"/>
<path d="M595.028 458.869C595.028 458.869 589.774 462.819 584.778 461.318C579.781 459.817 577.194 466.75 585.528 468.093C588.139 468.528 590.782 468.74 593.428 468.725C595.833 468.779 598.181 469.46 600.242 470.7C600.652 470.905 601.113 470.982 601.567 470.923C602.021 470.863 602.447 470.668 602.79 470.364C605.811 468.231 601.723 460.489 601.723 460.489L595.028 458.869Z" fill="#BF59C0"/>
<path opacity="0.08" d="M653.271 203.561C653.271 203.561 644.067 239.743 659.038 264.371C674.008 289 646.812 324.095 646.812 324.095L683.468 322.812C683.468 322.812 685.7 289.118 694.213 260.224C702.725 231.33 653.271 203.561 653.271 203.561Z" fill="black"/>
<path d="M612.408 325.3L683.468 322.812L696.266 440.976H645.687L644.857 352.733L612.408 325.3Z" fill="#24285B"/>
<path d="M612.408 325.3L578.339 437.243L626.608 440.976L654.337 339.836L612.408 325.3Z" fill="#24285B"/>
<path d="M662.711 172.593C665.876 172.078 669.117 172.317 672.173 173.289C675.228 174.261 678.011 175.939 680.296 178.188C682.582 180.437 684.305 183.193 685.326 186.232C686.347 189.271 686.638 192.508 686.174 195.681C684.199 210.632 677.05 232.653 655.779 256.708C617.069 300.435 524.224 276.182 524.224 276.182C524.224 276.182 505.343 278.631 502.835 268.519C500.327 258.407 525.35 263.621 525.35 263.621C525.35 263.621 570.775 273.239 604.35 242.864C631.546 218.196 635.199 177.234 662.711 172.593Z" fill="#F4A28C"/>
<path d="M490.728 319.434C488.802 317.927 487.413 315.839 486.769 313.48C486.125 311.121 486.26 308.616 487.154 306.34C489.264 304.387 490.95 302.019 492.105 299.386C493.26 296.753 493.861 293.909 493.869 291.034C493.625 285.22 491.145 279.726 486.945 275.699C482.746 271.671 477.152 269.423 471.334 269.423C465.515 269.423 459.922 271.671 455.723 275.699C451.523 279.726 449.043 285.22 448.799 291.034C448.812 293.909 449.414 296.75 450.569 299.383C451.724 302.016 453.407 304.384 455.514 306.34C456.423 308.613 456.567 311.119 455.926 313.482C455.285 315.844 453.892 317.933 451.959 319.434H398.121V373.273C399.617 375.212 401.705 376.61 404.068 377.255C406.431 377.901 408.941 377.757 411.215 376.847C413.174 374.744 415.542 373.064 418.174 371.909C420.807 370.754 423.647 370.15 426.521 370.132C432.334 370.376 437.829 372.856 441.856 377.056C445.883 381.255 448.132 386.849 448.132 392.667C448.132 398.486 445.883 404.079 441.856 408.278C437.829 412.478 432.334 414.958 426.521 415.202C423.646 415.189 420.804 414.587 418.172 413.432C415.539 412.277 413.171 410.594 411.215 408.487C408.938 407.593 406.434 407.459 404.075 408.103C401.716 408.747 399.627 410.135 398.121 412.062V465.9H544.567V319.434H490.728Z" fill="#E6E6E6"/>
<path d="M448.009 392.707C448.142 398.528 445.964 404.164 441.952 408.383C437.94 412.603 432.42 415.061 426.6 415.222C423.725 415.209 420.883 414.607 418.251 413.452C415.618 412.297 413.25 410.614 411.294 408.507C409.017 407.613 406.513 407.479 404.154 408.123C401.795 408.767 399.706 410.155 398.2 412.082V465.92H251.655V319.434H305.829C307.638 320.97 308.923 323.033 309.504 325.334C310.085 327.636 309.932 330.061 309.068 332.272C306.96 334.223 305.276 336.587 304.12 339.217C302.965 341.847 302.363 344.686 302.353 347.558C302.596 353.372 305.077 358.866 309.276 362.893C313.476 366.921 319.069 369.169 324.888 369.169C330.706 369.169 336.299 366.921 340.499 362.893C344.698 358.866 347.179 353.372 347.422 347.558C347.412 344.686 346.81 341.847 345.655 339.217C344.499 336.587 342.815 334.223 340.707 332.272C339.831 330.063 339.672 327.634 340.254 325.33C340.835 323.026 342.127 320.963 343.946 319.434H398.121V373.273C399.617 375.212 401.705 376.61 404.068 377.256C406.431 377.901 408.94 377.757 411.215 376.848C413.174 374.744 415.542 373.064 418.174 371.909C420.807 370.755 423.647 370.15 426.521 370.133C432.364 370.277 437.91 372.737 441.939 376.97C445.969 381.204 448.152 386.864 448.009 392.707Z" fill="#CCCCCC"/>
<path d="M219.62 456.697C219.62 456.697 225.545 462.622 232.062 459.817C238.58 457.013 243.261 462.543 238.501 467.204C233.741 471.865 215.67 472.082 215.67 472.082L210.377 459.837L219.62 456.697Z" fill="#BF59C0"/>
<path d="M118.954 453.971C118.954 453.971 116.011 462.029 120.929 467.283C125.847 472.536 122.746 479.251 116.841 476.348C110.936 473.445 103.964 455.907 103.964 455.907L112.733 446.131L118.954 453.971Z" fill="#BF59C0"/>
<path d="M102.917 302.528C102.917 302.528 96.5972 328.835 107.578 341.772C118.559 354.708 135.386 415.992 107.578 446.644L118.5 457.546C118.5 457.546 166.65 431.674 152.924 338.375L187.289 302.528H102.917Z" fill="#24285B"/>
<path d="M187.368 302.528L222.681 457.546L205.025 460.272C205.025 460.272 169.712 354.036 146.407 332.232L187.368 302.528Z" fill="#24285B"/>
<path d="M195.525 166.234C195.525 166.234 232.339 181.935 226.71 239.427L190.745 236.346L195.525 166.234Z" fill="#BF59C0"/>
<path opacity="0.36" d="M195.525 166.234C195.525 166.234 232.339 181.935 226.71 239.427L190.745 236.346L195.525 166.234Z" fill="white"/>
<path d="M157.269 116.997L147.078 152.962L167.302 157.168L166.611 129.301L157.269 116.997Z" fill="#F4A28C"/>
<path opacity="0.31" d="M167.026 135.404C164.549 134.456 162.402 132.809 160.844 130.664C160.844 130.664 160.33 137.478 167.006 145.081L167.026 135.404Z" fill="#CE8172"/>
<path d="M147.078 152.962L159.067 155.509C159.067 155.509 213.972 161.434 216.203 192.402C218.435 223.37 187.408 302.568 187.408 302.568H104.221C104.221 302.568 37.525 144.785 147.078 152.962Z" fill="#BF59C0"/>
<path d="M259.238 216.873C260.056 222.651 263.134 227.869 267.796 231.38C272.459 234.891 278.324 236.407 284.104 235.596C286.937 235.117 289.641 234.062 292.05 232.496C294.458 230.93 296.52 228.886 298.107 226.491C300.098 225.304 302.405 224.755 304.717 224.917C307.03 225.079 309.237 225.946 311.043 227.399L319.95 281.1L266.408 289.809C264.867 291.616 263.93 293.859 263.728 296.225C263.526 298.591 264.069 300.961 265.282 303.002C267.681 304.587 269.728 306.648 271.298 309.057C272.867 311.465 273.925 314.171 274.407 317.005C275.122 322.788 273.571 328.622 270.08 333.287C266.589 337.952 261.429 341.085 255.679 342.03C249.93 342.974 244.038 341.657 239.238 338.355C234.438 335.052 231.102 330.02 229.929 324.313C229.475 321.473 229.608 318.57 230.322 315.785C231.035 312.999 232.313 310.389 234.077 308.118C234.571 305.799 234.329 303.384 233.383 301.21C232.438 299.035 230.837 297.211 228.804 295.991L175.341 304.78L151.641 160.289L296.171 136.589L304.999 190.329C303.744 192.272 301.926 193.788 299.788 194.673C297.65 195.559 295.293 195.772 293.031 195.286C290.759 193.522 288.15 192.244 285.364 191.531C282.578 190.817 279.675 190.684 276.836 191.138C273.989 191.67 271.275 192.757 268.85 194.339C266.424 195.921 264.334 197.965 262.699 200.356C261.065 202.746 259.918 205.435 259.324 208.269C258.73 211.104 258.701 214.027 259.238 216.873Z" fill="#E6E6E6"/>
<path d="M178.224 117.984C178.224 117.984 177.217 129.341 173.997 136.451C173.686 137.138 173.242 137.757 172.691 138.272C172.14 138.787 171.493 139.188 170.787 139.452C170.08 139.717 169.328 139.839 168.574 139.812C167.821 139.785 167.079 139.609 166.394 139.295C164.121 138.419 162.15 136.906 160.717 134.937C159.284 132.968 158.45 130.627 158.316 128.195L156.696 117.787C156.589 115.667 157.143 113.567 158.283 111.776C159.422 109.986 161.09 108.594 163.056 107.793C170.205 104.416 179.192 111.151 178.224 117.984Z" fill="#F4A28C"/>
<path opacity="0.09" d="M122.45 167.359C122.45 167.359 150.91 183.89 144.294 221.277C137.677 258.664 126.716 271.521 150.219 266.307C173.721 261.093 183.339 249.302 183.339 249.302C183.339 249.302 200.226 263.127 183.339 273.535C166.453 283.944 143.543 283.963 139.889 302.469H104.221C104.221 302.469 101.337 294.372 97.5058 284.161C93.6743 273.95 122.45 167.359 122.45 167.359Z" fill="black"/>
<path d="M175.36 117.984C171.859 117.512 168.425 116.631 165.13 115.358C165.862 117.06 166.08 118.939 165.757 120.764C165.434 122.589 164.584 124.28 163.313 125.628C162.105 126.961 160.471 127.833 158.69 128.093C156.91 128.352 155.094 127.983 153.556 127.05L156.302 112.632C156.631 110.563 157.513 108.62 158.855 107.011C160.197 105.401 161.948 104.184 163.925 103.488C165.637 102.879 167.385 102.377 169.159 101.987C173.682 101.039 180.081 102.856 182.589 106.885C183.657 108.647 183.994 110.756 183.53 112.763C183.065 114.77 181.834 116.516 180.1 117.629C178.592 118.221 176.94 118.345 175.36 117.984Z" fill="#FFD200"/>
<path d="M164.577 125.529C164.577 125.529 165.268 121.204 161.95 120.947C158.632 120.69 157.605 126.872 161.95 128.333L164.577 125.529Z" fill="#F4A28C"/>
<path d="M78.605 233.502C78.605 233.502 73.9243 281.534 97.5058 284.22C115.281 286.195 143.859 276.182 161.298 271.225C168.843 269.072 172.497 268.065 178.303 262.772C185.255 256.412 194.893 251.889 187.388 245.866C174.077 235.141 164.636 253.489 164.636 253.489C153.515 256.713 142.054 258.622 130.488 259.177C128.321 259.232 126.171 258.781 124.209 257.86C122.246 256.939 120.526 255.573 119.184 253.87C117.842 252.168 116.915 250.176 116.478 248.053C116.04 245.929 116.104 243.733 116.663 241.639L121.068 225.089C121.068 225.089 89.823 195.799 78.605 233.502Z" fill="#F4A28C"/>
<path d="M177.217 125.173L179.587 130.052C179.719 130.33 179.78 130.638 179.762 130.946C179.745 131.254 179.65 131.552 179.487 131.814C179.323 132.076 179.097 132.292 178.828 132.443C178.559 132.594 178.256 132.675 177.947 132.678H173.504L177.217 125.173Z" fill="#F4A28C"/>
<path d="M103.115 163.646C90.85 173.067 72.4232 193.864 72.7787 233.127L123.161 236.346C123.161 236.346 137.717 193.232 122.45 167.359C121.503 165.757 120.226 164.373 118.703 163.302C117.181 162.23 115.448 161.494 113.62 161.143C111.791 160.792 109.909 160.833 108.098 161.265C106.287 161.697 104.588 162.508 103.115 163.646Z" fill="#BF59C0"/>
<path opacity="0.36" d="M103.115 163.646C90.85 173.067 72.4232 193.864 72.7787 233.127L123.161 236.346C123.161 236.346 137.717 193.232 122.45 167.359C121.503 165.757 120.226 164.373 118.703 163.302C117.181 162.23 115.448 161.494 113.62 161.143C111.791 160.792 109.909 160.833 108.098 161.265C106.287 161.697 104.588 162.508 103.115 163.646Z" fill="white"/>
<path d="M263.09 218.709C261.395 220.629 260.399 223.065 260.266 225.622C260.093 226.983 260.348 228.363 260.996 229.572C261.454 230.268 262.052 230.861 262.754 231.31C265.499 233.285 269.726 233.502 271.918 230.974C273.067 229.411 273.645 227.501 273.557 225.563C273.557 223.311 273.814 218.828 271.997 217.07C269.568 214.759 264.986 216.616 263.09 218.709Z" fill="#F4A28C"/>
</svg>
