<svg width="790" height="596" viewBox="0 0 790 596" fill="none" xmlns="http://www.w3.org/2000/svg">
<g clip-path="url(#clip0)">
<path opacity="0.48" d="M742.586 22.05H111.182C102.328 22.05 95.1501 29.2276 95.1501 38.0814V430.985C95.1501 439.839 102.328 447.016 111.182 447.016H742.586C751.44 447.016 758.617 439.839 758.617 430.985V38.0814C758.617 29.2276 751.44 22.05 742.586 22.05Z" fill="#7524DD"/>
<path opacity="0.18" d="M745.488 478.04C745.004 491.958 741.816 506.126 734.024 517.662C724.208 532.189 708.266 541.18 692.826 549.635L649.048 573.727C629.865 584.295 609.642 595.114 587.771 595.419C572.295 595.651 557.32 590.546 542.435 586.265C472.918 566.204 399.693 563.392 327.829 568.461C291.02 571.058 254.389 575.626 217.92 581.125C188.741 585.459 153.723 599.879 127.41 582.808C98.7505 564.18 81.1607 534.016 64.9681 504.729C50.8712 479.312 36.5773 453.268 31.9201 424.59C24.7553 380.275 41.9151 334.761 68.7655 298.757C76.8404 288.005 85.6567 277.83 95.1501 268.306V431.003C95.1501 435.263 96.8362 439.35 99.8401 442.37C102.844 445.391 106.922 447.1 111.182 447.124H742.568C744.815 457.269 745.796 467.654 745.488 478.04Z" fill="#7524DD"/>
<path opacity="0.18" d="M509.584 22.068H340.762C347.116 17.2367 354.018 13.1723 361.325 9.95938C374.67 4.13792 389.214 1.54066 403.723 0.501754C440.228 -2.13134 476.841 5.92914 509.584 22.068Z" fill="#7524DD"/>
<path d="M355.11 393.53C356.755 395.711 358.731 397.621 360.967 399.191C364.291 400.984 367.95 402.069 371.714 402.379L428.89 410.995C429.459 411.034 430.008 411.219 430.484 411.532C430.801 411.876 431.041 412.285 431.186 412.73C431.331 413.175 431.379 413.646 431.326 414.111C431.591 424.816 430.146 435.495 427.045 445.744C426.882 446.583 426.477 447.355 425.881 447.965C425.109 448.488 424.197 448.763 423.265 448.754C404.028 450.384 384.7 449.864 365.409 449.345C362.166 449.39 358.929 449.035 355.772 448.288C350.399 446.783 346.01 443.111 341.962 439.332C333.275 431.253 298.113 398.779 295.981 394.372C293.155 388.06 290.877 381.516 289.175 374.812C287.384 368.364 300.477 367.558 300.209 360.859C300.02 356.226 300.576 351.594 301.857 347.138C302.81 343.164 304.786 339.508 307.589 336.534C309.559 334.743 306.514 322.598 309.236 322.455C312.389 333.202 326.647 354.697 332.845 363.904C339.733 374.169 347.165 384.059 355.11 393.53Z" fill="#7524DD"/>
<path d="M355.11 393.53C356.755 395.711 358.731 397.621 360.967 399.191C364.291 400.984 367.95 402.069 371.714 402.379L428.89 410.995C429.459 411.034 430.008 411.219 430.484 411.532C430.801 411.876 431.041 412.285 431.186 412.73C431.331 413.175 431.379 413.646 431.326 414.111C431.591 424.816 430.146 435.495 427.045 445.744C426.882 446.583 426.477 447.355 425.881 447.965C425.109 448.488 424.197 448.763 423.265 448.754C404.028 450.384 384.7 449.864 365.409 449.345C362.166 449.39 358.929 449.035 355.772 448.288C350.399 446.783 346.01 443.111 341.962 439.332C333.275 431.253 298.113 398.779 295.981 394.372C293.155 388.06 290.877 381.516 289.175 374.812C287.384 368.364 300.477 367.558 300.209 360.859C300.02 356.226 300.576 351.594 301.857 347.138C302.81 343.164 304.786 339.508 307.589 336.534C309.559 334.743 306.514 322.598 309.236 322.455C312.389 333.202 326.647 354.697 332.845 363.904C339.733 374.169 347.165 384.059 355.11 393.53Z" fill="url(#paint0_linear)"/>
<path d="M210.433 302.787C206.582 306.22 202.99 309.932 199.686 313.893C191.768 323.619 186.502 335.191 181.594 346.726C168.536 377.428 157.162 410.261 160.548 443.452C160.612 445.449 161.152 447.402 162.124 449.148C163.665 451.124 165.831 452.519 168.268 453.106C174.555 455.113 181.272 455.202 187.971 455.256C213.782 455.489 239.63 455.722 265.423 454.468C269.418 454.271 273.645 453.966 276.959 451.709C279.379 449.856 281.31 447.44 282.583 444.67C289.515 431.63 291.539 416.548 296.913 402.827C304.078 384.915 323.781 368.633 319.626 349.753C301.857 269.596 218.565 295.39 210.433 302.787Z" fill="#7524DD"/>
<path d="M210.433 302.787C206.582 306.22 202.99 309.932 199.686 313.893C191.768 323.619 186.502 335.191 181.594 346.726C168.536 377.428 157.162 410.261 160.548 443.452C160.612 445.449 161.152 447.402 162.124 449.148C163.665 451.124 165.831 452.519 168.268 453.106C174.555 455.113 181.272 455.202 187.971 455.256C213.782 455.489 239.63 455.722 265.423 454.468C269.418 454.271 273.645 453.966 276.959 451.709C279.379 449.856 281.31 447.44 282.583 444.67C289.515 431.63 291.539 416.548 296.913 402.827C304.078 384.915 323.781 368.633 319.626 349.753C301.857 269.596 218.565 295.39 210.433 302.787Z" fill="url(#paint1_linear)"/>
<path d="M327.077 236.387C324.05 251.093 320.879 266.193 312.747 278.857C309.783 283.97 305.494 288.19 300.334 291.073C295.086 293.706 288.423 294.064 283.515 290.84C281.061 289.246 278.374 286.738 275.705 287.92C273.77 288.798 273.143 291.198 272.875 293.294C272.202 298.442 272.275 303.66 273.09 308.788C273.422 310.232 273.507 311.722 273.34 313.194C272.993 314.557 272.259 315.79 271.226 316.743C270.193 317.697 268.905 318.331 267.519 318.568C264.748 318.972 261.919 318.529 259.405 317.296C255.493 315.547 252.07 312.865 249.434 309.487C246.799 306.108 245.032 302.135 244.287 297.915C243.911 295.065 243.732 292.192 243.75 289.317C243.409 276.564 241.385 263.864 241.797 251.129C242.209 238.393 245.38 225.138 254.031 215.734C259.028 210.613 264.963 206.502 271.513 203.625C281.276 198.968 292.166 195.69 302.842 197.392C307.09 198.063 311.143 199.647 314.72 202.034C318.298 204.421 321.316 207.555 323.566 211.22C329.155 219.8 329.173 226.195 327.077 236.387Z" fill="#FFDAD2"/>
<path d="M353.748 203.984C354.476 198.007 353.366 191.95 350.566 186.619C347.766 181.288 343.409 176.936 338.075 174.142C333.328 171.778 328.044 170.775 322.921 169.413C310.92 166.189 299.403 160.851 287.097 159.705C274.791 158.559 260.641 162.875 255.16 174.035C254.157 176.077 253.171 178.549 250.968 179.086C249.764 179.216 248.547 179.106 247.386 178.764C239.164 177.313 231.766 184.334 228.058 191.804C222.076 203.894 221.771 217.991 223.079 231.407C224.279 243.821 227.449 257.237 237.409 264.796C238.394 265.548 239.845 266.229 240.794 265.423C241.229 264.968 241.5 264.382 241.564 263.757C242.566 259.05 242.939 254.232 242.675 249.427C242.478 245.845 241.905 242.047 242.836 238.519C243.767 234.99 246.759 231.64 250.413 231.748C253.798 231.748 256.521 234.9 257.363 238.196C257.963 241.552 257.834 244.997 256.987 248.299C257.524 249.642 259.405 248.03 259.727 246.633C262.199 235.384 262.754 222.792 270.564 214.391C272.153 216.035 273.31 218.048 273.932 220.248C275.099 219.039 276.583 218.182 278.215 217.777C279.846 217.372 281.559 217.433 283.156 217.955C285.423 218.942 287.506 220.304 289.318 221.986C308.341 236.835 349.754 232.428 353.748 203.984Z" fill="#3F3D56"/>
<path d="M215.914 321.13C209.896 325.5 206.958 333.184 206.779 340.6C206.6 348.016 214.445 395.071 221.843 408.433C227.575 418.823 239.522 445.942 257.667 453.429C263.041 455.65 342.481 454.719 379.345 450.724C379.112 442.001 378.682 433.278 378.109 424.554C378.163 423.404 377.814 422.27 377.124 421.348C376.192 420.381 374.867 414.058 373.541 414.058C352.047 414.147 330.373 420.721 308.878 421.223C305.757 421.424 302.622 421.238 299.546 420.668C297.028 420.039 294.615 419.05 292.381 417.73C275.794 408.344 266.623 389.912 260.139 371.982C255.178 358.154 251.183 343.842 244.018 330.927C241.475 326.324 239.2 321.846 234.184 319.822C228.291 317.44 221.377 317.171 215.914 321.13Z" fill="#7524DD"/>
<path d="M215.914 321.13C209.896 325.5 206.958 333.184 206.779 340.6C206.6 348.016 214.445 395.071 221.843 408.433C227.575 418.823 239.522 445.942 257.667 453.429C263.041 455.65 342.481 454.719 379.345 450.724C379.112 442.001 378.682 433.278 378.109 424.554C378.163 423.404 377.814 422.27 377.124 421.348C376.192 420.381 374.867 414.058 373.541 414.058C352.047 414.147 330.373 420.721 308.878 421.223C305.757 421.424 302.622 421.238 299.546 420.668C297.028 420.039 294.615 419.05 292.381 417.73C275.794 408.344 266.623 389.912 260.139 371.982C255.178 358.154 251.183 343.842 244.018 330.927C241.475 326.324 239.2 321.846 234.184 319.822C228.291 317.44 221.377 317.171 215.914 321.13Z" fill="url(#paint2_linear)"/>
<path d="M376.192 412.374C387.352 411.317 399.747 413.807 406.822 422.494C407.567 423.286 408.054 424.286 408.219 425.36C408.212 426.328 407.912 427.271 407.359 428.065C403.186 434.997 394.122 436.645 386.51 439.386C382.55 440.804 378.769 442.68 375.243 444.974C373.259 446.549 370.963 447.684 368.508 448.306C363.134 449.112 358.674 444.311 356.238 439.511C353.444 434.137 349.073 423.103 354.447 418.016C358.835 413.986 370.675 412.876 376.192 412.374Z" fill="#FFDAD2"/>
<path d="M468.601 409.616C470.588 410.745 472.295 412.306 473.599 414.183C474.235 415.133 474.613 416.232 474.694 417.372C474.776 418.513 474.559 419.655 474.064 420.685C473.219 421.955 472.067 422.99 470.715 423.695C460.809 429.588 448.665 430.644 438.634 436.233C436.577 437.729 434.217 438.756 431.72 439.242C430.253 439.275 428.798 438.968 427.468 438.347C426.139 437.726 424.97 436.806 424.054 435.66C422.227 433.379 420.825 430.788 419.916 428.011C408.183 397.202 451.728 398.868 468.601 409.616Z" fill="#FFDAD2"/>
<path d="M184.747 395.859H231.157V433.976C231.157 437.539 229.742 440.956 227.223 443.475C224.703 445.995 221.286 447.41 217.723 447.41H198.181C194.618 447.41 191.201 445.995 188.682 443.475C186.162 440.956 184.747 437.539 184.747 433.976V395.859Z" fill="white"/>
<path d="M228.023 405.102H242.084C245.053 405.102 247.9 406.282 250 408.381C252.099 410.481 253.279 413.328 253.279 416.297V420.936C253.279 423.906 252.099 426.753 250 428.853C247.9 430.952 245.053 432.132 242.084 432.132H228.023V405.102Z" stroke="white" stroke-width="3.03781" stroke-miterlimit="10"/>
<path d="M749.751 446.586H121.069C115.569 446.586 111.11 451.041 111.11 456.537C111.11 462.032 115.569 466.487 121.069 466.487H749.751C755.251 466.487 759.71 462.032 759.71 456.537C759.71 451.041 755.251 446.586 749.751 446.586Z" fill="#7524DD"/>
<path d="M634.181 466.791H278.822V590.045H634.181V466.791Z" fill="#7524DD"/>
<path d="M281.24 466.791H141.65V590.045H281.24V466.791Z" fill="#7524DD"/>
<path d="M634.199 466.791H281.168V590.045H634.199V466.791Z" fill="url(#paint3_linear)"/>
<path d="M281.24 466.791H141.65V590.045H281.24V466.791Z" fill="url(#paint4_linear)"/>
<path opacity="0.18" d="M758.599 38.0992V116.555H95.1501V38.0992C95.1501 33.8392 96.8362 29.7522 99.8401 26.7315C102.844 23.7108 106.922 22.0019 111.182 21.9783H742.568C746.828 22.0019 750.905 23.7108 753.909 26.7315C756.913 29.7522 758.599 33.8392 758.599 38.0992Z" fill="#7524DD"/>
<path d="M381.512 446.246L611.576 446.246C618.026 446.246 623.255 441.017 623.255 434.567C623.255 428.117 618.026 422.889 611.576 422.889H381.512C375.062 422.889 369.833 428.117 369.833 434.567C369.833 441.017 375.062 446.246 381.512 446.246Z" fill="#7524DD"/>
<path d="M381.512 446.246L611.576 446.246C618.026 446.246 623.255 441.017 623.255 434.567C623.255 428.117 618.026 422.889 611.576 422.889H381.512C375.062 422.889 369.833 428.117 369.833 434.567C369.833 441.017 375.062 446.246 381.512 446.246Z" fill="url(#paint5_linear)"/>
<path d="M461.293 446.282H637.853L684.425 328.187C685.043 326.613 685.268 324.912 685.079 323.232C684.891 321.551 684.295 319.942 683.344 318.544C682.392 317.147 681.114 316.002 679.62 315.21C678.126 314.418 676.461 314.003 674.77 314H536.22C529.517 314.013 522.974 316.038 517.436 319.813C511.898 323.588 507.621 328.939 505.16 335.173L461.293 446.282Z" fill="#7524DD"/>
<path d="M470.267 446.407H637.961L682.186 334.223C682.776 332.728 682.992 331.112 682.814 329.515C682.636 327.918 682.07 326.389 681.166 325.06C680.262 323.732 679.046 322.645 677.625 321.894C676.205 321.144 674.622 320.752 673.015 320.753H541.432C535.058 320.75 528.83 322.665 523.559 326.25C518.288 329.834 514.217 334.922 511.877 340.851L470.267 446.407Z" fill="#7524DD"/>
<path d="M470.267 446.407H637.961L682.186 334.223C682.776 332.728 682.992 331.112 682.814 329.515C682.636 327.918 682.07 326.389 681.166 325.06C680.262 323.732 679.046 322.645 677.625 321.894C676.205 321.144 674.622 320.752 673.015 320.753H541.432C535.058 320.75 528.83 322.665 523.559 326.25C518.288 329.834 514.217 334.922 511.877 340.851L470.267 446.407Z" fill="url(#paint6_linear)"/>
<path opacity="0.51" d="M660.118 276.94H411.855V290.912H660.118V276.94Z" fill="white"/>
<path d="M588.344 253.027H411.855V266.999H588.344V253.027Z" fill="white"/>
<path d="M730.62 253.027H612.472V266.999H730.62V253.027Z" fill="white"/>
<path d="M730.208 164.577H548.561V176.99H730.208V164.577Z" fill="white"/>
<path opacity="0.51" d="M704.845 186.627H510.516V199.04H704.845V186.627Z" fill="white"/>
<path d="M534.697 164.577H415.223V176.99H534.697V164.577Z" fill="white"/>
<path d="M730.208 208.014H467.634V220.427H730.208V208.014Z" fill="white"/>
<path opacity="0.51" d="M453.77 208.014H415.223V220.427H453.77V208.014Z" fill="white"/>
<path opacity="0.51" d="M730.208 230.064H556.89V242.477H730.208V230.064Z" fill="white"/>
<path d="M534.697 230.064H415.223V242.477H534.697V230.064Z" fill="white"/>
<path d="M492.048 186.107H415.223V198.521H492.048V186.107Z" fill="white"/>
<path d="M663.772 122.788H482.125V135.201H663.772V122.788Z" fill="white"/>
<path opacity="0.51" d="M638.409 144.838H444.079V157.251H638.409V144.838Z" fill="white"/>
<path d="M468.279 122.788H348.805V135.201H468.279V122.788Z" fill="white"/>
<path d="M662.16 97.084H480.513V109.497H662.16V97.084Z" fill="white"/>
<path d="M466.667 73.7622H347.192V86.1754H466.667V73.7622Z" fill="white"/>
<path d="M466.667 52.4827H347.192V64.8958H466.667V52.4827Z" fill="white"/>
<path d="M425.63 144.318H348.805V156.732H425.63V144.318Z" fill="white"/>
</g>
<defs>
<linearGradient id="paint0_linear" x1="298.167" y1="372.304" x2="388.175" y2="406.606" gradientUnits="userSpaceOnUse">
<stop offset="0.01"/>
<stop offset="0.12" stop-opacity="0.75"/>
<stop offset="1" stop-opacity="0"/>
</linearGradient>
<linearGradient id="paint1_linear" x1="20819.6" y1="45156.7" x2="18308.1" y2="30221.6" gradientUnits="userSpaceOnUse">
<stop offset="0.01"/>
<stop offset="0.12" stop-opacity="0.75"/>
<stop offset="1" stop-opacity="0"/>
</linearGradient>
<linearGradient id="paint2_linear" x1="23393.1" y1="37308.1" x2="26284.7" y2="29082.9" gradientUnits="userSpaceOnUse">
<stop offset="0.01"/>
<stop offset="0.12" stop-opacity="0.75"/>
<stop offset="1" stop-opacity="0"/>
</linearGradient>
<linearGradient id="paint3_linear" x1="93121.3" y1="26732.2" x2="91125.8" y2="45936.7" gradientUnits="userSpaceOnUse">
<stop offset="0.01"/>
<stop offset="0.12" stop-opacity="0.75"/>
<stop offset="1" stop-opacity="0"/>
</linearGradient>
<linearGradient id="paint4_linear" x1="12050" y1="27577.7" x2="16633.4" y2="52194.4" gradientUnits="userSpaceOnUse">
<stop offset="0.01"/>
<stop offset="0.12" stop-opacity="0.75"/>
<stop offset="1" stop-opacity="0"/>
</linearGradient>
<linearGradient id="paint5_linear" x1="67506.3" y1="6684.1" x2="67507.5" y2="6048.01" gradientUnits="userSpaceOnUse">
<stop offset="0.01"/>
<stop offset="0.12" stop-opacity="0.75"/>
<stop offset="1" stop-opacity="0"/>
</linearGradient>
<linearGradient id="paint6_linear" x1="65887.5" y1="36115.8" x2="66187.8" y2="23249.6" gradientUnits="userSpaceOnUse">
<stop offset="0.01"/>
<stop offset="0.12" stop-opacity="0.75"/>
<stop offset="1" stop-opacity="0"/>
</linearGradient>
<clipPath id="clip0">
<rect width="790" height="595.419" fill="white"/>
</clipPath>
</defs>
</svg>
